<?xml version="1.0" encoding="UTF-8"?>
<svg id="Capa_1" xmlns="http://www.w3.org/2000/svg" version="1.1" viewBox="0 0 446.51 448.69">
  <!-- Generator: Adobe Illustrator 29.6.1, SVG Export Plug-In . SVG Version: 2.1.1 Build 9)  -->
  <defs>
    <style>
      .st0 {
        fill: #82341e;
      }

      .st1 {
        fill: #8c4219;
      }

      .st2 {
        fill: #f5e4d3;
      }

      .st3 {
        fill: #9e602b;
      }

      .st4 {
        fill: #fff;
      }

      .st5 {
        fill: #806329;
      }

      .st6 {
        fill: #99481b;
      }

      .st7 {
        fill: #c9a599;
      }

      .st8 {
        fill: #f79567;
      }

      .st9 {
        fill: #5770db;
      }

      .st10 {
        fill: #ab563f;
      }

      .st11 {
        fill: #cc9fca;
      }

      .st12 {
        fill: #694438;
      }

      .st13 {
        fill: #402525;
      }

      .st14 {
        fill: #b04c2a;
      }

      .st15 {
        fill: #b037a6;
      }

      .st16 {
        fill: #fb6063;
      }

      .st17 {
        fill: #bf5a22;
      }
    </style>
  </defs>
  <g>
    <path class="st11" d="M234.43,256.21c-1.14,5.61-2.96,10.89-5.37,15.79-.07.14-.14.28-.21.42-12.35,24.67-39.5,39.28-67.46,34.41-.11-.02-.22-.04-.34-.06-.46-.08-.92-.17-1.38-.26-11.4-2.31-21.45-7.6-29.52-14.9-.1-.09-.19-.18-.29-.27-1.87-1.7-3.62-3.52-5.26-5.43-.07-.09-.15-.17-.22-.26-5.21-6.13-9.24-13.23-11.85-20.92-3.55-10.46-4.47-22.01-2.1-33.66,1.33-6.56,3.6-12.69,6.65-18.26.95-1.74,1.98-3.43,3.08-5.07,1.14-1.7,2.36-3.33,3.65-4.9,2.04-2.49,4.26-4.81,6.63-6.95,2.58-2.33,5.35-4.44,8.26-6.32,1.71-1.1,3.46-2.12,5.26-3.04,3.75-1.94,7.69-3.5,11.78-4.66,7.99-2.26,16.51-2.96,25.15-1.82,1.43.19,2.86.43,4.3.72,2.73.55,5.38,1.28,7.94,2.16,5.06,1.74,9.79,4.09,14.11,6.95,4.81,3.18,9.12,6.99,12.85,11.3.08.09.16.18.24.27,2.06,2.4,3.93,4.95,5.61,7.63.07.12.15.23.22.35,8.29,13.42,11.69,29.99,8.29,46.78Z"/>
    <path class="st11" d="M207.22,189.87c-4.33-2.86-9.05-5.21-14.11-6.95-2.56-.88-5.21-1.6-7.94-2.16-1.44-.29-2.87-.53-4.3-.72-8.64-1.14-17.16-.44-25.15,1.82-4.09,1.16-8.03,2.72-11.78,4.66-1.8.93-3.56,1.94-5.26,3.04-2.91,1.87-5.68,3.99-8.26,6.32-2.37,2.14-4.59,4.46-6.63,6.95-1.29,1.57-2.51,3.2-3.65,4.9-1.1,1.63-2.13,3.32-3.08,5.07-3.05,5.57-5.32,11.7-6.65,18.26-2.36,11.65-1.45,23.2,2.1,33.66,3.19.7,6.45,1.12,9.7,1.27,12.68.58,25.37-2.83,36.61-8.57,11.05-5.64,20.94-13.63,28.88-23.15,8.02-9.62,14.03-20.88,17.28-32.99,1-3.74,1.75-7.55,2.24-11.4Z"/>
    <path class="st5" d="M215.55,222.31c-3.55,10.68-8.81,20.77-15.75,29.65-6.58,8.42-14.62,15.73-23.8,21.21-9.74,5.82-20.67,9.48-31.84,11.31-6.47,1.06-13.02,1.53-19.57,1.41-.07-.09-.15-.17-.22-.26,8.03.16,16.08-.56,23.94-2.19,11-2.28,21.63-6.42,30.99-12.67,8.79-5.87,16.4-13.43,22.56-22,6.74-9.38,11.68-19.96,14.83-31.05,1.54-5.43,2.66-10.96,3.39-16.55.08.09.16.18.24.27-.94,7.08-2.51,14.08-4.77,20.87Z"/>
    <path class="st5" d="M221.7,228.03c-3.55,10.68-8.82,20.77-15.75,29.65-6.58,8.42-14.62,15.73-23.8,21.21-9.74,5.82-20.67,9.48-31.84,11.31-6.66,1.1-13.42,1.56-20.16,1.4-.1-.09-.19-.18-.29-.27,8.25.22,16.53-.49,24.6-2.17,11-2.28,21.62-6.42,30.99-12.67,8.79-5.87,16.4-13.43,22.56-22,6.74-9.38,11.68-19.96,14.83-31.06,1.34-4.71,2.37-9.51,3.09-14.35.07.12.15.23.22.35-.96,6.31-2.43,12.54-4.44,18.6Z"/>
  </g>
  <g>
    <path class="st13" d="M85.7,299.32c-.5-3.27-1.77-6.52-4.11-8.93-2.39-2.46-5.7-3.82-9.03-4.43-4.2-.77-8.67-.67-12.88-.1-4.13.56-8.13,1.81-11.87,3.62-.06-.02-.12-.02-.18.04-.02.03-.05.05-.07.08-.06.03-.12.06-.18.08-.09.04-.1.13-.07.2-1.59,1.98-1.62,4.84-.5,7.08,1.37,2.72,4.15,4.41,6.89,5.49,3.65,1.44,7.56,1.95,11.39,2.67,3.8.72,7.52,1.75,11.11,3.18,1.77.71,3.51,1.63,5.4,1.99,1.18.22,2.78.32,3.63-.71.34-.42.47-.95.54-1.48.13-1.02.17-2.06.2-3.09.07-1.91.01-3.82-.28-5.71Z"/>
    <path class="st8" d="M60.54,261.45c-.05.68-.1,1.37-.15,2.05-.2,3.01-1.35,14.04-2.59,25.4-.17,1.58-.35,3.16-.52,4.73-.05.46-.1.91-.15,1.36-.14,1.26-.28,2.52-.41,3.74-.05.46-.1.91-.16,1.35-.5,4.49-.98,8.58-1.35,11.71-.11.91-.21,1.74-.3,2.48,1.64.17,3.28.26,4.92.25.21,0,.41,0,.62,0,.25,0,.49,0,.73-.02.62-.02.8-.12,1.03-.72,0,0,0-.02.01-.03.02-.06.06-.19.13-.38.01-.04.02-.07.03-.12.53-1.66,2.21-7.03,4.16-13.14.14-.44.28-.88.42-1.32.4-1.25.81-2.52,1.22-3.79.14-.44.29-.88.43-1.33.47-1.45.94-2.89,1.4-4.28,1.61-4.89,3.08-9.15,3.92-11.18,1.85-4.44,3.46-8.98,4.92-13.57.35-1.11.7-2.23,1.04-3.34.04-.13.08-.26.12-.39-6.5.1-12.98.26-19.47.55Z"/>
    <path class="st8" d="M63.73,318.12c-.03-.14-.06-.28-.1-.43-.03-.13-.07-.27-.11-.4,0-.02-.01-.04-.02-.07-.04-.13-.08-.26-.12-.39-.04-.13-.08-.26-.13-.39-.09-.26-.18-.52-.28-.79-.24-.66-.41-1.32-.52-1.98-.02-.11-.03-.22-.05-.33,0-.03,0-.07-.01-.1-.16-1.21-.12-2.43.01-3.71.21-1.95.54-3.88.43-5.85,0-.1-.11-.15-.2-.12-1.87.55-3.79.65-5.7.33.01-.33.02-.66.03-.99,0-.19-.3-.16-.3.03,0,.31-.01.61-.03.92-.01,0-.02,0-.03,0-.19-.04-.24.26-.05.29.03,0,.05,0,.08.01-.12,2.6-.59,5.17-1.41,7.63-.21.64-.44,1.27-.7,1.89-.29.69-.6,1.38-.95,2.04-.15.3-.31.59-.47.88-1.01,1.81-2.18,3.51-3.45,5.14-.06.08-.13.17-.19.25-.02.03-.05.06-.07.09-.77.98-1.69,2.05-2.7,3.16-.1.11-.2.23-.3.34-3.91,4.31-8.94,9.33-11.37,13.43-.4.67-.78,1.36-1.12,2.07-.03.07-.07.14-.1.22-.03.06-.05.12-.08.18-.01.04-.03.07-.04.1-.03.06-.05.12-.07.17-.03.08-.05.15-.08.23-.01.06-.03.12-.04.18,0,.05-.02.1-.03.15h0c-.03.23-.03.45.03.68.3,1.18,1.71,1.62,2.77,1.77,2.98.44,5.91-1.15,8.03-3.12,2.44-2.27,4.16-5.18,6.48-7.56,2.39-2.45,8.58-6.59,10.8-9.21,1.05-1.23,1.9-2.69,2.21-4.29.11-.57.13-1.12.08-1.66-.01-.14-.03-.27-.05-.41-.02-.13-.04-.27-.07-.4Z"/>
    <path class="st2" d="M63.8,318.52c-.02-.13-.04-.27-.07-.4-.03-.14-.06-.28-.1-.43-.03-.13-.07-.27-.11-.4,0-.02-.01-.04-.02-.07-.04-.13-.08-.26-.12-.39-.04-.13-.08-.26-.13-.39-.09-.26-.18-.52-.28-.79-.24-.66-.41-1.32-.52-1.98-.02-.11-.03-.22-.05-.33,0,0,0,0,0,0-1.55.66-2.93,1.75-4.11,3.14-.24.29-.8.29-1.04,0-.93-1.1-2.31-1.39-3.54-1.05-.05.1-.09.19-.14.29-.15.3-.31.59-.47.88-1.01,1.81-2.18,3.51-3.45,5.14-.06.08-.13.17-.19.25-.02.03-.05.06-.07.09-.77.98-1.69,2.05-2.7,3.16-.1.11-.2.23-.3.34-3.91,4.31-8.94,9.33-11.37,13.43-.4.67-.78,1.36-1.12,2.07-.03.07-.07.14-.1.22-.03.06-.05.12-.08.18-.01.04-.03.07-.04.1-.03.06-.05.12-.07.17-.03.08-.05.15-.08.23-.01.06-.03.12-.04.18,0,.05-.02.1-.03.15t0,0c-.03.22-.03.45.03.67.3,1.18,1.71,1.62,2.77,1.77,2.98.44,5.91-1.15,8.03-3.12,2.44-2.27,4.16-5.18,6.48-7.56,2.39-2.45,8.58-6.59,10.8-9.21,1.05-1.23,1.9-2.69,2.21-4.29.11-.57.13-1.12.08-1.66-.01-.14-.03-.27-.05-.41Z"/>
    <path class="st10" d="M63.63,317.69c-.5.91-1.05,1.8-1.67,2.65-1.87,2.58-4.24,4.56-6.77,6.47-1.44,1.09-2.86,2.21-4.11,3.52-1.13,1.19-2.15,2.48-3.17,3.78-3.43,4.37-8.29,9.91-14.46,8.21.01-.11.04-.22.07-.34,3.49.95,7.03-.68,9.64-3,2.34-2.08,4.1-4.69,6.09-7.08,1.97-2.38,4.28-4.23,6.72-6.1,2.38-1.82,4.51-3.84,6.19-6.34.48-.72.93-1.47,1.33-2.24.05.16.09.31.13.47Z"/>
    <path class="st10" d="M52.69,323.71c-.6-1.2-2-1.64-3.31-1.63.02-.03.05-.06.07-.09.06-.08.13-.16.19-.25,1.37.05,2.75.6,3.37,1.85.1.19-.22.31-.32.12Z"/>
    <path class="st10" d="M49.67,327.21c-.6-1.2-2-1.64-3.3-1.63.1-.11.2-.22.3-.34,1.35.06,2.7.61,3.31,1.85.1.19-.22.31-.31.12Z"/>
    <path class="st10" d="M53.32,316.99c-.73-.77-1.84-.65-2.54.09-.61.64-.9,1.57-1.05,2.51-.17-1.48-.46-2.98-1.19-4.23-.68-1.17-2.07-1.77-3.12-.64-1.08,1.17-.56,3.05.22,4.23.94,1.43,2.49,2.36,4.08,2.89.02.02.05.04.09.05.61.12,1.22-.29,1.75-.56.61-.32,1.2-.7,1.63-1.24.72-.89.97-2.2.12-3.1ZM46.65,319.65c-.99-.99-1.87-2.62-1.35-4.04.38-1.04,1.55-1.55,2.44-.73.53.48.8,1.2,1.02,1.86.5,1.52.66,3.12.82,4.71-1.08-.4-2.1-.97-2.92-1.79ZM52.78,320.07c-.32.35-.72.61-1.13.85-.41.23-1.18.71-1.7.66,0,0-.02,0-.03,0,0,0,0-.01,0-.02.02-.95.13-1.92.39-2.83.17-.59.44-1.28.98-1.62.64-.41,1.42-.36,1.9.27.65.86.26,1.99-.41,2.71Z"/>
    <path class="st15" d="M184.5,179.1c-.52-.19-1.06-.33-1.62-.44-.11-.03-.23-.05-.34-.07-.7-.14-1.4-.25-2.08-.39-4.23-.88-8.5-1.61-12.78-2.2-.13-.02-.25-.04-.38-.05-7.06-.96-14.17-1.53-21.28-1.71-.68-.02-1.37-.03-2.05-.04.13-.16.25-.32.38-.48.13-.17-.1-.41-.24-.24-.19.24-.37.48-.56.72-.65-.01-1.31-.01-1.96-.02-.22,0-.22.34,0,.34.56,0,1.13,0,1.69.01-1.23,1.54-2.53,3.03-4.11,4.22-2.3,1.75-4.98,2.42-7.84,1.92-2.78-.49-5.39-1.79-7.91-3.01-2.3-1.12-4.57-2.31-6.81-3.53-8.86-4.83-17.5-10.27-27.05-13.7-4.62-1.66-9.44-2.78-14.35-3.06-.32-.02-.64-.03-.96-.04-.12,0-.23,0-.35,0-1.88-.03-3.79.13-5.52.88-2.04.88-3.45,2.58-4.29,4.6-.89,2.12-1.19,4.44-1.38,6.71-.24,2.89-.19,5.79.07,8.67.53,5.73,1.91,11.35,3.63,16.83,1.78,5.68,3.93,11.24,6.02,16.82,1.58,4.21,3.16,8.42,4.73,12.63-3.85,4-7.27,8.35-9.99,13.25-2.06,3.72-3.78,7.62-5.42,11.54-1.76,4.22-3.46,8.47-5.1,12.74-3.7,9.61-7.11,19.33-10.23,29.14-.04.11.09.26.21.21,3.19-1.25,6.62-1.81,10.02-1.69.12,0,.23,0,.35.01,2.46.11,4.91.58,7.26,1.41.96.33,1.87.73,2.75,1.18.1.05.2.1.3.16,1.64.87,3.15,1.91,4.58,3.07.08.07.17.14.25.2,2.23,1.85,4.27,3.96,6.29,6.09.25.26.5.52.75.78.07.07.15.15.22.23,1.94,2.01,3.94,3.97,6.21,5.62.09.07.22,0,.25-.1,1.49-4.96,2.99-9.93,4.89-14.76,1.95-4.99,4.4-9.65,7.4-14.08,1.42-2.09,2.78-4.2,3.69-6.57.94-2.44,1.48-5.02,2.13-7.55.64-2.48,1.43-4.88,2.65-7.13,1.04-1.92,2.29-3.72,3.54-5.51.63-.9,1.26-1.79,1.88-2.71,6.06-3.62,12.21-7.07,18.46-10.36,4.94-2.6,9.94-5.08,14.99-7.47,4.24-2.01,8.49-4,12.55-6.37,3.9-2.27,7.64-4.9,10.77-8.18,3.4-3.56,5.66-7.77,7.45-12.32,2.14-5.47,4.13-11.01,6.18-16.51.52-1.41,1.05-2.82,1.57-4.22.25-.68.51-1.36.76-2.03.24-.64.6-1.33.7-2.01.11-.74-.33-1.2-.98-1.44Z"/>
    <path class="st13" d="M104.07,201.41c-3.46-6.95-7.11-13.8-10.96-20.55-.11-.19-.4-.02-.29.17,3.85,6.74,7.5,13.6,10.96,20.55.1.19.39.02.29-.17Z"/>
    <path class="st13" d="M79.18,239.46c-5.33,8.67-9.7,17.9-13.57,27.3-3.1,7.54-5.88,15.21-8.59,22.91-.12,0-.23-.01-.35-.01,3.15-8.96,6.4-17.89,10.15-26.62,4-9.34,8.56-18.47,14.13-26.99,5.62-8.59,12.29-16.45,20.1-23.12,8.81-7.54,18.62-14.01,28.42-20.19,9.95-6.28,20.18-12.09,30.66-17.42.19-.1.37.19.17.29-1.28.65-2.56,1.31-3.83,1.98-10.32,5.4-20.4,11.27-30.19,17.59-9.73,6.28-19.52,12.82-28.04,20.7-7.46,6.89-13.74,14.95-19.04,23.58Z"/>
    <path class="st13" d="M95.87,238c-6.83,8.75-12.38,18.45-17.23,28.42-4.14,8.5-7.78,17.23-11.32,25.99-.1-.05-.2-.1-.3-.16,3.99-9.88,8.1-19.72,12.92-29.23,4.93-9.74,10.6-19.16,17.56-27.6,3.47-4.21,7.26-8.17,11.37-11.77,4.5-3.93,9.37-7.41,14.34-10.71,9.89-6.56,20.28-12.46,29.36-20.18,5.69-4.84,10.91-10.42,14.74-16.83,1.74-2.92,3.19-6,4.27-9.27.07-.21.4-.12.32.09-.4,1.2-.84,2.39-1.33,3.56-.83,1.96-1.8,3.85-2.88,5.67-4.35,7.36-10.54,13.6-17.19,18.93-9.24,7.4-19.62,13.19-29.39,19.85-4.99,3.4-9.82,7.04-14.25,11.16-3.99,3.72-7.64,7.78-11,12.08Z"/>
    <path class="st13" d="M185.31,170.58c-.34,1.44-.72,2.86-1.15,4.27-.39,1.28-.81,2.55-1.27,3.8-3.55,9.68-9.21,18.53-16.18,26.11-3.99,4.35-8.43,8.3-13.18,11.8-5.03,3.71-10.45,6.76-15.94,9.73-5.71,3.09-11.48,6.17-16.65,10.13-4.64,3.55-8.56,7.85-11.82,12.69-6.14,9.12-10.01,19.5-14.51,29.47-3.93,8.71-8.45,17.37-15.21,24.21-.07-.07-.15-.15-.22-.23.13-.13.26-.27.4-.4,7.58-7.82,12.2-17.89,16.51-27.74,4.32-9.9,8.44-20.12,15.09-28.74,3.54-4.59,7.8-8.45,12.59-11.7,5.31-3.62,11.06-6.53,16.69-9.62,5.45-2.99,10.71-6.26,15.59-10.13,4.61-3.66,8.88-7.77,12.69-12.25,5.9-6.95,10.67-14.86,13.82-23.4.98-2.64,1.79-5.34,2.44-8.08.05-.21.38-.12.32.09Z"/>
    <path class="st13" d="M198.29,177.52c-3.95,3.87-10.03,1.76-14.66.74-5.38-1.18-10.92-1.37-16.41-1.18-5.52.2-11.06.72-16.57.18-2.64-.26-5.26-.76-7.76-1.64-1.23-.43-2.46-.94-3.58-1.6-1.28-.75-1.88-1.77-2.13-3.21-.15-.83-.25-1.66-.54-2.45,1.17.32,2.49-.14,3.22-1.15.61-.85.31-1.68.55-2.62.31-1.2,2.22-2.04,3.21-2.65,4.31-2.66,8.97-4.76,13.8-6.28,4.79-1.51,9.76-2.46,14.77-2.85,5.29-.41,10.75-.22,15.78,1.62,4.49,1.64,8.63,4.62,10.92,8.9,1.16,2.16,1.84,4.61,1.86,7.07.02,2.49-.6,5.33-2.44,7.13Z"/>
    <path class="st13" d="M172.31,181.64c-.11-.03-.22-.07-.32-.12-.61,2.35-1.52,4.58-2.64,6.71-3.83-1.02-6.84-4.21-7.62-8.1-.04-.21-.37-.12-.33.09.8,3.98,3.88,7.26,7.79,8.32-3.67,6.82-9.54,12.58-15.23,17.62-8.81,7.8-18.62,14.2-29.11,19.48-9.02,4.55-18.81,9.13-24.33,18.05-2.81,4.54-4.4,9.67-6.15,14.67-.94,2.66-1.92,5.31-3.16,7.84-1.27,2.57-2.85,4.92-4.65,7.14-1.82,2.24-3.76,4.38-5.43,6.74-1.48,2.1-2.76,4.32-4.02,6.55-1.66,2.97-3.28,6.03-5.21,8.85.08.07.17.14.25.2,1.16-1.68,2.21-3.45,3.22-5.22,2.68-4.74,5.23-9.44,8.73-13.64,1.84-2.21,3.75-4.36,5.33-6.77,1.45-2.22,2.6-4.63,3.6-7.09,2.07-5.12,3.49-10.5,5.86-15.51,2.33-4.92,5.73-9.01,10.05-12.3,4.19-3.18,8.9-5.6,13.59-7.96,5.07-2.55,10.08-5.15,14.88-8.18,4.95-3.13,9.7-6.6,14.19-10.37,4.4-3.69,8.66-7.63,12.37-12.02,2.09-2.48,4.02-5.14,5.57-8,.14,0,.21-.17.14-.26.9-1.69,1.66-3.45,2.25-5.29.15-.47.28-.95.41-1.43Z"/>
    <path class="st8" d="M182.82,28.22c-1.41-.63-2.45.52-3.29,1.51-1.26,1.49-2.92,2.57-4.89,2.69,1.32-3.21,2.26-6.58,2.47-10.06.06-1.02.06-2.05-.02-3.07-.04-.56.02-1.59-.42-2.04-.4-.4-.76-.26-1.05.08-.08-1-.41-2-1.35-2.29-.89-.27-1.43.61-1.74,1.58-.17-.44-.44-.78-.87-.92-1.04-.34-1.56.61-1.82,1.69-.04-.04-.07-.09-.12-.13-1.86-1.51-2.42,4.13-2.53,4.84-.14.83-.33,1.63-.57,2.43-.16.51-.34,1.02-.53,1.52-.3.76-.63,1.5-1.01,2.23-.48.93-1.02,1.82-1.61,2.68-.62.89-1.37,1.69-1.98,2.59-1.17,1.72-1.14,3.66-.78,5.63.23,1.21.47,2.41.43,3.65-.05,1.37-.34,2.71-.62,4.05-.02.08.02.16.11.19.92.27,1.86.49,2.81.65,0,0,.02,0,.02,0,1.01.31,1.98.7,2.93,1.17.1.05.19,0,.23-.09.46-1.13.92-2.25,1.39-3.38.46-1.13.95-2.15,1.92-2.93,1.54-1.25,3.5-1.91,5.12-3.08,2.75-1.99,4.92-4.69,6.29-7.78.65-1,1.18-2.07,1.58-3.2.02-.07-.01-.17-.08-.2Z"/>
    <path class="st8" d="M267.71,42.64c-.06-.01-.12-.01-.17-.01.71-.86,1.14-1.85.24-2.47-.37-.26-.81-.27-1.26-.14.59-.84.96-1.8.2-2.34-.8-.57-1.79-.23-2.64.32.1-.44,0-.81-.57-.88-.62-.08-1.4.6-1.87.9-.86.56-1.68,1.18-2.46,1.85-2.6,2.24-4.69,5-6.43,7.95.16-.7.4-1.38.69-2.05.45-1.04,1.22-2.06,1.37-3.2.07-.52,0-1.63-.67-1.8-.72-.19-1.58,1.23-1.95,1.65-1.66,1.9-3.4,3.93-4.67,6.12-.56.97-.94,2.03-.85,3.17.05.67.21,1.34.4,2,.21,1.36.51,2.72.47,4.09-.04,1.24-.55,2.25-1.17,3.3-.61,1.05-1.23,2.1-1.84,3.15-.05.09-2.63,3.37-2.54,3.41.95.46,4.45-2.17,5.31-1.56,0,0-.81,2.4-.8,2.4.7.66,2.26-1.12,3.03-.55.07.05.16.03.22-.03.89-1.04,1.78-2.08,2.84-2.95.96-.79,2.06-1.32,3.16-1.88,1.79-.91,3.35-2.06,4-4.04.34-1.03.52-2.11.85-3.14.32-.99.71-1.97,1.15-2.91.35-.74.74-1.46,1.16-2.15.28-.46.58-.9.89-1.34.49-.67,1.01-1.31,1.58-1.92.49-.52,4.64-4.39,2.3-4.95Z"/>
    <path class="st16" d="M169.42,128.72c.11,1.07.17,2.15.16,3.22-.01.79,0,1.66-.29,2.41-.3.76-.92,1.28-1.54,1.78-.86.68-1.72,1.36-2.58,2.03-3.44,2.68-6.96,5.25-10.77,7.38-3.8,2.12-7.78,3.98-11.11,6.84-.13.11-.32,0-.28-.17,1.06-4.59,1.51-9.31,1.29-14.01-.21-4.59-1.16-9.01-2.37-13.43-1.02-3.74-2.1-7.5-2.44-11.38-.34-3.95.26-7.88.86-11.78.22-1.4.41-2.79.55-4.19.25-2.31.39-4.61.36-6.96,0-.39-.01-.79-.03-1.18-.14-3.96-.54-7.91-.49-11.88.05-3.65.51-7.31,1.87-10.71,1.17-2.93,2.91-5.62,5.09-7.9,2.4-2.51,5.24-4.16,8.28-5.77.01,0,.03-.01.04-.02.53-.28.93-.64,1.27-1.06.09-.11.17-.23.25-.34.81-1.24,1.14-2.88,1.89-4.35.36-.71.76-1.41,1.19-2.09,1.04.44,2.11.76,2.94,1.01.96.29,3.46,1.17,4.45,1.29-.18,1.6-.04,3.21.43,4.75.04.12.07.24.12.35.15.43.32.85.52,1.26.86,1.75,2.38,3.32,2.29,5.39-.07,1.85-1.25,3.42-2.25,4.89-1.33,1.97-2.19,3.94-2.27,6.35-.14,4.14,1.32,8.18.96,12.33-.04.5-.11.98-.2,1.47-.5,2.74-1.64,5.33-2.64,7.94-.27.71-.53,1.42-.77,2.14-1.27,3.89-1.37,7.88-.64,11.89.7,3.86,1.98,7.57,3.17,11.29,1.17,3.65,2.28,7.36,2.69,11.19Z"/>
    <path class="st16" d="M249.92,79.23c.69,3.6,2.05,7.05,1.62,10.79-.78,6.76-5.76,12.13-10.46,16.63-2.52,2.41-5.11,4.77-7.35,7.46-.02.02-.04.04-.06.07-1.42,1.71-2.57,3.52-3.49,5.45-.67,1.4-1.21,2.88-1.64,4.43-.52,1.87-.97,3.77-1.71,5.56-.66,1.6-1.54,3.1-2.53,4.51-2.11,3-4.65,5.66-6.85,8.59-4.59,6.12-8.01,13.09-10.09,20.45-.04.15-.23.16-.31.04-3.25-4.98-6.54-10.07-8.41-15.76-.94-2.87-1.31-5.75-1.49-8.76-.1-1.7-.3-3.35-.8-4.98-.12-.39-.25-.78-.38-1.17-.09.71-.16,1.43-.2,2.16-.01.22-.35.22-.34,0,.05-.98.15-1.95.29-2.91-.3-.93-.57-1.86-.73-2.83-.03-.21.29-.3.33-.09.12.74.31,1.45.52,2.16.08-.47.17-.93.27-1.4.76-3.41,2.11-6.68,3.96-9.64,1.83-2.91,4.21-5.32,6.62-7.74,1.98-1.99,3.95-4.06,5.36-6.48.41-.7.77-1.43,1.08-2.19.66-1.65,1.06-3.38,1.42-5.12.42-2.03.78-4.09,1.42-6.06,1.92-5.93,6.29-11.02,11.85-13.83,2.78-1.4,8.61-5.27,9.8-6.3.54-.47,1.01-.99,1.42-1.55.07-.1.14-.2.21-.3.49-.72.9-1.51,1.24-2.35.38-.92.75-1.92,1.22-2.85,2.15.25,7.17.86,9.33,1.12.2.02.4.05.59.08-.05.47-.13.93-.23,1.39-.39,1.83-1.04,3.59-1.46,5.42,0,.01,0,.03-.01.04-.02.11-.05.22-.07.33-.38,1.88-.33,3.72.03,5.61Z"/>
    <path class="st16" d="M195.65,157.21c-1.75-1.96-4.34-2.64-6.86-2.95-3.03-.38-6.12-.56-9.17-.52-2.98.03-5.99.33-8.86,1.14-2.97.84-5.5,2.38-8.16,3.89-3.35,1.9-6.96,2.8-10.76,3.23-3.35.38-6.78.69-10.16.65.19-.35.38-.7.57-1.04.11-.19-.18-.36-.29-.17-.23.4-.45.8-.66,1.2-.24,0-.49,0-.73-.01-.22-.01-.22.33,0,.34.19,0,.38,0,.56.01-1.47,2.87-2.53,5.93-3.15,9.09-.03.12-.05.23-.07.35-.08.46-.16.93-.23,1.4-.13.9-.22,1.81-.27,2.72-.04.71-.03,1.36.67,1.7.8.4,1.95.37,2.83.47,1.2.14,2.41.25,3.62.34,9.31.71,18.79.31,27.91,2.66,4.67,1.2,9.17,3.13,12.98,6.11.08.06.21.07.27-.04,1.49-2.51,3.01-5,4.57-7.47.06-.09.12-.19.18-.28.2-.31.39-.62.59-.93,1.7-2.65,3.57-5.24,4.98-8.06,2.13-4.24,3.08-9.96-.38-13.82Z"/>
    <path class="st16" d="M206.93,110.49c-.45,1.65-.84,3.33-1,5.04-.17,1.82,0,3.63.13,5.44.22,3.23-.19,6.24-1.84,9.08-3.29,5.64-9.57,8.45-15.93,8.54-6.88.1-13.35-2.74-19.03-6.4-2.64-1.7-5.56-3.54-7.25-6.26-.82-1.32-.99-2.72-1.44-4.16-.35-1.11-1.01-1.94-2.13-2.32-1.01-.35-2.11-.35-3.11-.69.58-6.88,2.89-13.38,6.57-19.21,1.93-3.06,4.04-6.02,6.09-9.01,2.08-3.03,4.09-6.13,6.31-9.06,4.1-5.39,9.68-10.28,16.27-12.26,6.19-1.86,13.22-.64,17.45,4.53,3.64,4.46,4.72,10.6,4.22,16.21-.64,7.09-3.44,13.72-5.31,20.52Z"/>
    <path class="st13" d="M205.57,94.51c-.36-2.03-1.36-3.76-3.27-4.65-2.03-.94-4.46-1.09-6.66-1.32-2.78-.29-5.58-.4-8.38-.34-1.19.03-2.37.09-3.56.18-.27-1.2-.71-2.37-1.47-3.26-3.17-3.66-7.26,2.78-8.78,5.07-2.61,3.95-4.48,8.39-5.51,13.01-.5,2.25-.8,4.55-.88,6.85-.09,2.45-.02,4.97.76,7.31,1.34,4.03,4.52,7.31,8.52,8.73,2.15.76,4.47.99,6.73.66,2.53-.37,4.93-1.5,7.28-2.48,4.29-1.79,8.64-4,11.5-7.8,3.05-4.06,3.63-9.67,3.91-14.58.14-2.42.24-4.97-.18-7.38Z"/>
    <path class="st8" d="M173.82,120.87c2.63-7.68,4.97-15.47,7.01-23.34,3.37,2.39,6.62,4.96,9.77,7.71-1.88,6.95-4.09,13.79-6.63,20.5-3.41-1.56-6.79-3.19-10.15-4.86Z"/>
    <path class="st8" d="M203.21,108.1c1.21-4.18,2.56-9.01,3.06-13.15.43-3.54.03-7.07-2.33-10.03-2.65-3.34-6.73-5.44-10.67-5.78-9.02-.77-11.38,5.12-12.1,6.74-.83,1.84-1.27,3.87-1.62,5.89-.32,1.86-.58,3.74-.63,5.65-.1,3.44.73,8.66,2.66,11.65,1.78,2.77,7.23,8.32,12.71,7.24,4.54-.9,7.95-4.83,8.93-8.21Z"/>
    <path class="st13" d="M192.68,96.94c-.15.91-.75,1.57-1.34,1.47-.59-.1-.94-.92-.78-1.83.15-.91.75-1.57,1.34-1.47.59.1.94.92.78,1.83Z"/>
    <path class="st13" d="M201.92,98.18c-.15.91-.75,1.57-1.34,1.47-.59-.1-.94-.92-.78-1.83.15-.91.75-1.57,1.34-1.47.59.1.94.92.78,1.83Z"/>
    <path class="st14" d="M197.77,99.08c-.49-1.04-.99-2.07-1.49-3.1-.09-.2-.39-.02-.29.17.66,1.36,1.58,2.8,1.95,4.28.45,1.81-1.19,2.97-2.66,3.59-.2.08-.03.38.17.29,1.26-.54,2.87-1.56,2.93-3.09.03-.75-.29-1.47-.6-2.14Z"/>
    <path class="st4" d="M192.8,108.94c-1.51-.47-1.68-2.11-1.59-3.48,1.08.38,2.19.69,3.31.91.53.1,1.05.17,1.57.17-.11,1.52-1.82,2.86-3.29,2.4Z"/>
    <path class="st9" d="M214.8,145.73c-.22,0-.22.34,0,.34s.22-.34,0-.34Z"/>
    <path class="st16" d="M211.71,139.46c-1.13-2.8-3.55-4.74-5.2-7.21-2.05-3.07-2-6.53-2.37-10.06-.17-1.65-1.19-4.55-3.41-3.54-1.15.52-1.67,1.84-2.55,2.67-1.22,1.15-3,1.65-4.65,1.34-1.82-.35-3.13-1.82-4.87-2.41-1.58-.54-3.3-.54-4.92-.2-2.28.47-4.28,1.61-6.13,2.97-.02-.11-.04-.22-.06-.33-.5-2.51-1.31-4.95-2.39-7.27-1.04-2.21-2.32-4.58-4.03-6.35-.63-.66-1.44-1.18-2.39-1.15-.38,0-.75.11-1.07.32-.63.41-.92,1.53-1.87,1.12-.64-.27-1.04-1.11-1.34-1.68-.32-.63-.67-1.25-1.07-1.84-.64-.96-1.38-1.84-2.2-2.64.16-.17.33-.34.49-.51.15-.16-.09-.4-.24-.24-.17.17-.33.34-.49.51-.12-.12-.24-.24-.37-.35-.16-.15-.4.09-.24.24.13.12.25.24.37.35-3.39,3.56-6.6,7.37-8.74,11.82-2.15,4.47-3.1,9.38-4.09,14.21-.99,4.89-2.03,9.87-4.44,14.29-2.25,4.13-5.87,7.33-8.03,11.51-1.18,2.29-1.72,4.77-1.39,7.34.39,2.94,1.7,5.66,2.99,8.29.05.11.19.1.27.03,8.39-6.51,18.97-9.5,29.34-10.99,10.23-1.47,21.93-.87,29.23,7.45,1.68,1.91,2.99,4.16,3.69,6.62.18.63.27,1.27.42,1.9.06.25,2.64-3.85,4.83-7.23,1.7-2.62,4.17-7.12,5.61-9.95,1.43-2.83,1.79-6.05,2-9.17.22-3.25.58-6.76-.68-9.85Z"/>
    <path class="st14" d="M169.65,17.76c-.28,4.16-1.39,8.19-3.27,11.91-.1.19.19.36.29.17,1.91-3.77,3.03-7.86,3.32-12.08.01-.22-.32-.22-.34,0Z"/>
    <path class="st14" d="M172.3,16.89c-.2,2.24-.44,4.49-.83,6.71-.39,2.19-1.13,4.19-2.08,6.2-.09.2.2.37.29.17.95-2.03,1.72-4.07,2.11-6.28.4-2.25.64-4.53.84-6.8.02-.22-.32-.22-.34,0Z"/>
    <path class="st14" d="M175.28,17.73c-.02,2.24-.46,4.45-.91,6.63-.2.95-.41,1.89-.69,2.82-.14.49-.3.97-.48,1.44-.16.42-.4,1.3-.74,1.69-.02,0-.03,0-.05.02l-.02.02c-.08.05-.1.15-.06.23,0,.01.01.02.02.03.06.11.19.1.27.03.31-.25.46-.83.62-1.19.19-.43.35-.87.51-1.32.38-1.11.66-2.25.9-3.4.49-2.31.96-4.66.99-7.02,0-.22-.34-.22-.34,0Z"/>
    <path class="st14" d="M173.71,32.42c-2.44.18-4.92.95-6.57,2.86-1.7,1.98-1.98,4.8-2.31,7.29-.03.21.31.21.34,0,.32-2.38.58-5.15,2.21-7.05,1.58-1.84,3.98-2.59,6.33-2.76.22-.02.22-.35,0-.34Z"/>
    <path class="st14" d="M255.23,55.19c-.12-2.48-1.28-4.65-1.96-7-.06-.21-.39-.12-.33.09.61,2.12,1.66,4.09,1.9,6.3.11,1.04.08,2.13-.29,3.12-.45,1.18-1.44,1.96-2.35,2.79-.16.15.08.39.24.24.83-.76,1.75-1.48,2.25-2.52.45-.94.58-1.99.53-3.02Z"/>
    <path class="st14" d="M263.62,38.38c-2.85,2.88-5.33,6.09-7.4,9.58-.11.19.18.36.29.17,2.05-3.46,4.52-6.65,7.35-9.51.15-.15-.09-.39-.24-.24Z"/>
    <path class="st14" d="M266.05,39.94c-2.86,2.76-5.35,5.86-7.41,9.26-.11.19.18.36.29.17,2.05-3.37,4.51-6.45,7.35-9.19.16-.15-.08-.39-.24-.24Z"/>
    <path class="st14" d="M266.85,42.75c-2.54,2.49-5.03,5.07-6.86,8.15-.11.19.18.36.29.17,1.82-3.05,4.29-5.6,6.81-8.08.16-.15-.08-.39-.24-.24Z"/>
    <path class="st0" d="M188.06,89.49s-.06.02-.1.03c.45-1.64-3.37-.93-4.1-.82-1.7.25-4.49.83-5.23,2.67-.13.33-.17.69-.22,1.04-.09.68-.29,1.08-.63,1.66-.5.84.38,1.66.23,2.55-.09.51-.38.91-.42,1.44-.04.51.05,1.03.17,1.53.34,1.29.9,2.55,1.36,3.8.06.17.34.16.33-.04-.09-1.69,1.13-3.17,1.86-4.76.36-.77-.27-3.56.56-3.81.65-.19,1.34-.15,1.98-.33,1.17-.33,1.52-1.27,1.76-2.37.37-1.68.67-1.79,2.52-2.27.21-.05.12-.38-.09-.33Z"/>
    <path class="st8" d="M180.46,94.2c-2.38,1.37-1.02,4.41.75,5.61.82.56,2.14.79,2.7-.26.17-.31.24-.68.24-1.07.2-.13.35-.35.38-.64.2-2.1-1.73-4.98-4.06-3.64Z"/>
    <path class="st14" d="M182.32,95.74c-.65.78-.91,2.46-.13,3.22.16.15.39-.09.24-.24-.63-.61-.4-2.12.13-2.75.14-.17-.1-.41-.24-.24Z"/>
    <path class="st0" d="M194.09,90.2c-1.18-.92-2.84-1.11-4.18-.45-.88.43-1.89,1.91-.76,2.68.66.44,1.63.32,2.37.52.64.18,1.32.21,2-.04,1.92-.7.72-2.59.56-2.71Z"/>
    <path class="st0" d="M204.26,91.95c-1.17-.92-2.83-1.11-4.16-.45-.87.43-1.88,1.91-.75,2.68.65.44,1.63.32,2.36.52.64.18,1.31.21,1.99-.04,1.91-.7.72-2.59.56-2.71Z"/>
    <path class="st17" d="M205.3,84.24c-1.22-3.49-3.61-6.64-7.09-7.93-4.9-1.81-10.86-.09-14.56,3.41-1.85,1.76-3.22,3.97-4,6.39-.97.48-1.72,1.01-1.81,2.15-.13,1.71-.28,5.92.82,5.24,2.09-1.29,3.79-2,6.17-2.54,2.48-.57,5.01-.89,7.56-.98,5.01-.17,10.08.71,14.79,2.4,1.11.4.57-6.58,0-7.31-.49-.61-1.18-.65-1.88-.84Z"/>
    <path class="st16" d="M205.96,97.06c-.72,3.82-1.76,7.62-2.46,9.76-.62,1.91-3.02,5.6-4.6,7.01-2.06,1.82-4.71,3-7.24,4-2.54,1-5.17,1.75-7.86,2.23-2.13.38-4.74.4-6.23,2.22-.18.22-.32.44-.43.68-.6-2.31-1.8-4.4-2.64-6.63-.97-2.57-1.41-5.3-1.52-8.04-.21-5.02.46-10.21,2.43-14.86.04-.17.07-.33.11-.5.6-2.9,3.59-4.32,4.98-8.82,1.4-4.53,2.47-7.82,6-10.88-.85.48-1.66,1.02-2.44,1.57-4.14,2.98-8.04,6.57-11.36,10.43-3.25,3.79-5.72,8.07-7.43,12.76-1.79,4.9-2.81,10.04-3.63,15.18-.4,2.51-.98,5.14-.73,7.7.2,1.96,1.01,3.81,2.24,5.33,2.65,3.27,6.93,4.61,11,3.59,1.83-.46,3.51-1.37,4.92-2.61,1.72.8,3.82.79,5.63.5,2.6-.41,5.13-1.38,7.54-2.4,2.44-1.04,4.83-2.25,7.07-3.68,1.9-1.22,3.72-2.7,4.76-4.76,1.18-2.33,1.47-5.09,1.98-7.62.85-4.24,1.85-8.49,2.5-12.78-.91,1.33-2.28-.97-2.58.61Z"/>
    <path class="st13" d="M204.61,83.88c-7.68-1.66-15.69-1.32-23.19.99-.21.06-.12.39.09.33,7.45-2.29,15.39-2.64,23.01-.99.21.05.3-.28.09-.33Z"/>
    <path class="st3" d="M170.43,121.34c-2.89-2.95-5.92-6.06-7.17-10.1-1.38-4.46-.4-9.22.53-13.67.04-.21-.28-.3-.33-.09-.94,4.51-1.92,9.32-.53,13.85,1.26,4.1,4.33,7.27,7.25,10.25.15.16.39-.08.24-.24Z"/>
    <path class="st3" d="M203.72,114.43c-1.95.76-3.9,1.52-5.85,2.28-.2.08-.11.41.09.33,1.95-.76,3.9-1.52,5.85-2.28.2-.08.11-.41-.09-.33Z"/>
    <path class="st3" d="M168.55,52.56c-3.69-.65-7.49-.76-11.27-.62.09-.11.17-.23.25-.34,3.66-.13,7.33-.01,10.9.61.04.12.07.24.12.35Z"/>
    <path class="st3" d="M249.95,73.29c-.02.11-.05.22-.07.33-3.56-1.14-7.17-2.1-10.82-2.88.07-.1.14-.2.21-.3,3.6.78,7.17,1.73,10.68,2.85Z"/>
    <path class="st3" d="M210.92,119.54c0-.22-.33-.22-.34,0-.42,10-.14,20.01.82,29.97.02.21.36.22.34,0-.96-9.96-1.23-19.98-.82-29.97Z"/>
    <path class="st3" d="M163.79,130.87c-5.55,3.85-11.49,7.12-17.73,9.74-.2.08-.11.41.09.33,6.26-2.63,12.23-5.9,17.81-9.78.18-.12,0-.42-.17-.29Z"/>
    <path class="st3" d="M199.39,132.5c-2.68-.1-3.67-2.92-5.91-3.89-1.24-.54-2.56-.26-3.82.04-1.61.38-3.2.64-4.86.57-3-.11-6.94-.97-8.59-3.74-.69-1.16-1.04-2.48-1.38-3.77-.05-.19-.08-.41-.16-.6-.66.14-1.32.33-1.95.55.66,2.5,1.45,5.03,3.14,7.03,1.7,2.01,4.07,3.1,6.71,2.74,3.24-.45,6.47-2.31,9.52-.17,1.03.72,1.89,1.66,2.94,2.37.46.31.94.58,1.47.75.76.25,1.55.25,2.25.68.09.06.22,0,.25-.1.18-.74.37-1.49.55-2.23.03-.11-.05-.21-.16-.21Z"/>
    <path class="st3" d="M207.44,119.67c-.02-.08-.12-.15-.21-.12-2.88,1.02-5.85.22-8.76-.16-1.23-.16-2.48-.25-3.72-.09-1.32.17-2.48.68-3.63,1.31-2.47,1.34-5.11,2.47-7.8.93-.58-.33-1.43-.84-1.92-.07-.44.69.12,1.43.63,1.87.02.02.05.03.07.04.83.87,2.2,1.3,3.37,1.39,1.09.09,2.2-.09,3.21-.52,1.13-.48,2.14-1.15,3.32-1.54,1.28-.43,2.62-.83,3.98-.77,1.28.06,2.51.46,3.78.6,2.65.28,5.3-.22,7.89-.71.07-.01.13-.09.12-.16-.07-.68-.18-1.34-.35-2Z"/>
    <path class="st16" d="M141.25,90.48c.03,2.34-.11,4.65-.36,6.96,8.21-.69,16.32-2.45,24.07-5.23,1-2.61,2.14-5.19,2.64-7.94-8.43,3.33-17.33,5.42-26.35,6.21Z"/>
    <path class="st16" d="M233.73,114.1s-.04.04-.06.07c-1.42,1.71-2.57,3.52-3.49,5.45-6.56-3.87-12.65-8.52-18.1-13.84.41-.7.77-1.43,1.08-2.19.66-1.65,1.06-3.38,1.42-5.12,5.67,6.03,12.12,11.28,19.16,15.63Z"/>
    <path class="st10" d="M190.45,180.03c-.06.09-.12.19-.18.28-7.08-4.13-14.95-6.83-23.04-8.17-9.7-1.6-19.62-1.31-29.31.28.02-.12.04-.23.07-.35,4.69-.77,9.43-1.23,14.18-1.31,10.94-.2,21.96,1.6,31.99,6.06,2.15.96,4.25,2.03,6.29,3.22Z"/>
    <path class="st13" d="M85.29,217.04c-.09.08-.19.16-.28.24l-.11-.35-3.05-9.8c-1.56-5.03-3.13-10.05-4.69-15.08-1.56-5.03-3.3-10.05-4.31-15.23-1.26-6.46-1.29-13.4,1.04-19.52.12,0,.23,0,.35,0-.98,2.51-1.57,5.18-1.81,7.87-.91,10.21,2.96,20.09,5.94,29.67,2.26,7.28,4.53,14.56,6.79,21.84.04.11.07.23.11.35Z"/>
    <path class="st13" d="M125.29,190.12c0,.11-.13.23-.26.16-.02-.01-.04-.02-.07-.03-5.46-2.79-10.93-5.59-16.39-8.39-2.49-1.27-4.99-2.55-7.48-3.83-1.2-.62-2.39-1.23-3.59-1.84-1.2-.62-2.4-1.3-3.67-1.74-2.34-.8-5.27-.37-5.9,2.4-.28,1.22-.13,2.52-.01,3.75.12,1.29.3,2.58.52,3.86,1.43,8.12,4.65,15.75,6.98,23.63.03.11.06.22.1.33-.09.07-.19.15-.28.22-.03-.11-.06-.22-.1-.33-1.21-4.14-2.67-8.22-4-12.33-1.61-4.96-3.03-10.02-3.54-15.23-.19-1.96-.51-4.51,1.11-6,1.5-1.37,3.73-1.19,5.5-.53,2.59.97,5.04,2.47,7.5,3.73,2.6,1.33,5.19,2.66,7.78,3.98,5.24,2.68,10.47,5.36,15.71,8.04.06.03.08.08.08.13Z"/>
    <path class="st13" d="M128.46,189.33c-4.29,1.45-8.44,3.27-12.44,5.38-7.3,3.85-14.05,8.58-20.49,13.72-.09.07-.19.15-.28.22-3.39,2.71-6.69,5.53-9.95,8.38-.09.08-.19.16-.28.24-2.34,2.05-4.66,4.13-6.97,6.2-.16.15-.4-.09-.24-.24,2.36-2.11,4.72-4.22,7.1-6.31.09-.08.19-.16.28-.24.94-.82,1.89-1.64,2.84-2.46,2.34-2,4.71-3.98,7.13-5.91.09-.07.19-.15.28-.22,9.06-7.2,18.76-13.64,29.54-17.85.11-.05.22-.09.32-.13,1.01-.39,2.04-.76,3.07-1.12.21-.07.3.26.09.32Z"/>
  </g>
  <g>
    <path class="st13" d="M281.65,140.84c-1.53-.65-3.28-.89-4.92-1.12-1.95-.27-3.91-.37-5.87-.21-4.3.33-8.19,1.84-11.89,3.95-1.95,1.11-3.88,2.26-5.83,3.39-.7.41-1.84.89-2.54,1.58-.03,0-.07.02-.1.05-2.34,2.3-3.92,5.29-4.42,8.5-.23,1.45-.3,3.03.4,4.37.73,1.4,2.17,2.29,3.61,2.88,3.27,1.35,6.94,1.32,10.42,1.16,3.99-.19,7.76-1.02,11.45-2.53,6.28-2.57,12.25-7.26,12.81-14.37.23-2.97.03-6.31-3.12-7.65Z"/>
    <path class="st17" d="M285.27,158.34c1.13-.65,1.74-1.99,1.3-3.28-.56-1.64-2.12-1.94-3.65-1.97-1.05-.02-2.01-.12-2.88-.75-1.06-.77-1.71-1.95-2.18-3.14-.82-2.07-1.47-4.22-2.21-6.32-.54-1.56-1.14-3.19-2.26-4.44-1.2-1.34-2.92-1.94-4.7-1.86-1.99.08-3.84.95-5.55,1.92-1.72.98-3.4,2.05-4.99,3.24-3.06,2.3-5.78,5.08-7.53,8.49-.11-.06-.27-.02-.25.13.01.11.02.21.03.32-.09.18-.17.36-.25.54-.09.2.2.37.29.17,0,0,0-.01.01-.02.16,3.31-.68,6.56-.68,9.87,0,1.31,0,3.11.8,4.23.69.97,1.73.77,2.66.36-.37,1.99-.08,4.54,1.57,5.88,1.02.83,2.82.76,3.4-.45.29.86.8,1.61,1.38,2.32.71.86,1.53,1.73,2.58,2.17,1.08.44,2.14.21,3.21-.14,1.29-.42,2.56-.87,3.75-1.54.12-.07.1-.2.02-.27.51-.48.86-1.06,1.05-1.74,3.16.98,6.63,1.29,9.71-.14,1.49-.69,5.29-3.46,3.39-5.33,1.9-.58,3.66-2.03,3.97-4.08.25-1.66-.53-3.38-2-4.16Z"/>
    <path class="st16" d="M372.07,335.43s-.15.32-.42.88c0,0,0,.01,0,.01-.11.18-.24.35-.37.52-1.61,2.12-3.9,3.53-6.15,4.88-.59.35-1.18.71-1.77,1.06-.54.32-1.08.65-1.63.97-1.48.88-2.98,1.74-4.49,2.59-4.33,2.43-8.84,4.71-13.52,6.51-.47.19-.95.36-1.42.53-6.08,2.21-9.97,3.21-16.52,3.03-1.47-.04-2.93-.17-4.38-.38,0-.03-.01-.06-.02-.09-1.05-2.72-1.18-5.41-1.94-7.49-.38-1.05-.76-2.11-1.15-3.18h0c-.6-1.67-1.2-3.35-1.8-5.03-.85-2.37-1.71-4.74-2.58-7.11-.63-1.71-1.26-3.42-1.91-5.13-.58-1.52-1.17-3.04-1.77-4.55-.63-1.57-1.26-3.14-1.91-4.7-1.55-3.69-3.17-7.3-4.91-10.8-1.18-2.37-2.67-4.57-4.09-6.8-.8,1.5-1.64,2.96-2.52,4.4-.86,1.41-1.75,2.79-2.67,4.16-1.63,2.43-3.33,4.81-5.04,7.19-1.18,1.65-2.37,3.29-3.54,4.93-.52.72-1.02,1.44-1.53,2.17-1.94,2.79-3.77,5.66-5.48,8.59-.98,1.67-1.92,3.35-2.82,5.06-2.99,5.67-5.57,11.56-7.67,17.64-.02.07-.07.12-.16.13h-.1c-1.49.1-2.97.13-4.47.06-12.11-.56-23.14-6.34-33.05-12.91-2.54-1.68-5.04-3.43-7.53-5.18-2.14-1.51-4.32-3.09-5.78-5.32-.31-.49-.59-1-.8-1.54-.17-.44-.29-.89-.34-1.36-.14-1.18.22-2.19.68-3.25.78-1.86,1.61-3.69,2.48-5.5.35-.73.71-1.46,1.07-2.18.66-1.31,1.34-2.6,2.04-3.88h0s0,0,0,0c1.69-3.11,3.51-6.14,5.43-9.11,1.09-1.69,2.22-3.37,3.37-5.02,2.39-3.42,4.91-6.75,7.52-10,.04-.05.07-.09.11-.14,1.19-1.48,2.4-2.94,3.63-4.38,3.32-3.9,6.77-7.69,10.31-11.38,2.18-2.27,4.39-4.51,6.62-6.72.89-.88,1.78-1.75,2.68-2.63,4.14-4.01,8.59-8.37,11.95-13.28,1.03-1.51,1.96-3.07,2.73-4.68,1.63-3.36,2.62-6.98,2.62-10.9-.17.12-.33.24-.49.36-.18.13-.36-.16-.18-.28.22-.17.44-.33.66-.49,0-.18,0-.35,0-.53-.01-.22.32-.23.33-.01,0,.1,0,.2.01.3,3.12-2.33,6.31-4.56,9.6-6.66,1.77-1.13,3.57-2.23,5.38-3.29.9-.53,1.8-1.07,2.73-1.55.57-.3,1.15-.48,1.79-.26.74.25,1.33.91,1.89,1.42.54.49,1.08.99,1.62,1.5,1.2,1.14,2.38,2.31,3.52,3.49,6.39,6.63,12.12,13.61,17.47,20.89,1.01,1.37,2,2.74,2.98,4.13,1.75,2.48,3.47,4.98,5.16,7.52,1.12,1.67,2.23,3.36,3.33,5.06,1.91,2.95,3.8,5.94,5.67,8.97.94,1.5,1.87,3.02,2.81,4.54,1.52,2.47,3.04,4.96,4.56,7.48.39.63.77,1.27,1.16,1.9.41.67.81,1.35,1.23,2.03,1.49,2.46,3.02,5.03,4.54,7.63.68,1.16,1.35,2.34,2.02,3.5,1.15,2.03,2.27,4.06,3.33,6.05.68,1.27,1.33,2.53,1.95,3.76.06.13.13.25.19.38,1.13,2.25,2.16,4.48,3.16,6.71.75,1.66,1.48,3.31,2.21,4.97,1.4,3.15,2.83,6.33,4.46,9.62.07.15-.1.19-.1.19Z"/>
    <path class="st13" d="M371.96,335.2c-2.16-1.35-4.78-2.17-6.98-2.59-.97-.18-1.94-.31-2.92-.38-.53-.04-1.06-.06-1.6-.06-2.83-.03-5.65.38-8.39,1.1-1.52.4-3.01.89-4.46,1.46-2.61,1.01-5.15,2.24-7.62,3.6-.42.23-.84.46-1.26.7-1.64.94-3.26,1.93-4.84,2.95-.63.41-1.25.82-1.87,1.23-4.84,3.24-6.94,6.74-10.05,11.72-.21.33-.4.66-.59,1-.02.03-.03.06-.05.08.02,0,.04,0,.07.01,1.45.21,2.92.33,4.38.38,6.38.18,10.25-.77,16.08-2.87.15-.05.29-.11.44-.16.47-.17.95-.35,1.42-.53,4.68-1.8,9.19-4.08,13.52-6.51.03-.02.06-.04.1-.06,1.47-.83,2.94-1.67,4.39-2.53.55-.32,1.08-.65,1.63-.97.59-.35,1.18-.71,1.77-1.06,2.25-1.35,4.54-2.76,6.15-4.88.13-.17.25-.34.37-.52,0,0,0-.01,0-.01.2-.3.39-.62.54-.95-.07-.05-.15-.1-.23-.15Z"/>
    <path class="st13" d="M311.91,234.47c-.43-.99-1.24-2.46-1.99-3.27-1.35-1.47-3.14.41-4.48,1.07-2.68,1.32-5.53,2.32-8.3,3.43-3,1.2-6,2.51-9.16,3.24-3.29.75-6.68.84-10.04.9-.15,0-.27.04-.38.09-.48-.15-1.14.11-1.21.76-.15,1.39-.31,2.78-.46,4.17-.05.48.43.81.84.84,10.11.73,20.33-1.38,29.31-6.09,1.1-.58,2.18-1.2,3.24-1.85.79-.49,2.18-1.06,2.66-1.92.28-.5.16-.88-.05-1.37Z"/>
    <path class="st15" d="M324.31,173.47l-.06.06c-1.15,1.18-2.4,2.27-3.71,3.28-.26.2-.53.41-.8.6-2.25,1.66-4.65,3.1-7.12,4.43-2.34,1.26-4.75,2.42-7.15,3.56.18.47.32.96.43,1.45.53,2.36.44,4.82,1.26,7.12.86,2.4,2.48,4.43,4.09,6.38.06.07.12.15.18.22,1.62,1.96,3.16,3.95,4.55,6.08.33.51.65,1.02.96,1.54,2.12,3.49,3.86,7.22,5.17,11.09.33.96.87,2.09.75,3.13-.1.97-.88,1.6-1.58,2.2-1.73,1.48-3.46,2.96-5.22,4.4-6.82,5.56-14.33,10.78-23.06,12.71-1.68.37-3.38.59-5.09.79-2.92.33-5.85.58-8.7,1.3-.03,0-.06.02-.09.02-1.25.32-2.48.74-3.64,1.3-.67.32-1.4.87-2.17.58-.42-.16-.74-.53-1.04-.83-.47-.45-.93-.9-1.39-1.36-.85-.83-1.7-1.66-2.55-2.48-1.67-1.63-3.45-3.23-4.71-5.22-1.26-1.99-1.86-4.3-2.58-6.52-.16-.51-.34-1.01-.51-1.51-.74.98-1.49,1.97-2.23,2.95-1.24,1.64-2.48,3.28-3.72,4.92-.14.18-.27.37-.41.55-.4.52-.77,1.42-1.42,1.55-.51.1-1.24-.04-1.76-.07-.53-.03-1.07-.07-1.6-.12-3.74-.35-7.45-1.14-11-2.34-2.78-.94-5.91-2.34-6.82-5.4-.16-.53-.21-1.04-.17-1.55.05-.88.35-1.72.73-2.57.82-1.86,1.68-3.69,2.52-5.54.03-.07.07-.15.1-.22.72-1.59,1.44-3.18,2.17-4.77.89-1.95,1.78-3.9,2.68-5.85,1.59-3.41,3.27-6.79,5.35-9.92,1.94-2.92,4.22-5.61,6.64-8.14.98-1.02,1.97-2.01,2.98-2.99,1.12-1.09,2.26-2.16,3.42-3.21.08-.08.16-.15.25-.22.26-.24.53-.49.8-.72.98-.89,1.96-1.77,2.95-2.65.31-.28.62-.55.93-.82.63.65,1.59,1.03,2.42.68,2.63-1.11,4.72-2.88,6.8-4.81.91-.84,1.8-1.76,2.82-2.47,1.14-.79,2.35-1.34,3.3-2.37.48-.52.68-1.1.68-1.66.15-.07.3-.15.46-.22,1.46-.68,2.94-1.34,4.42-1.99.12-.05.24-.1.35-.16.8-.35,1.6-.7,2.39-1.05,2.78-1.23,5.55-2.51,8.2-3.99.3-.16.59-.33.89-.5.79-.46,1.87-1.07,3.1-1.74,3.5-1.92,8.15-4.38,10.54-5.48.26-.12.48-.22.68-.3,2.04-.88,1.53-.2,4.31,1,2.9,1.25,5.45,3.78,7.38,6.22.98,1.24,1.86,2.57,2.6,3.97.72,1.37,1.52,2.94,1.81,4.47.26,1.35-.89,2.36-1.75,3.24Z"/>
    <path class="st8" d="M266.24,178.97c-2.04-6.06-4.4-11.99-7.05-17.76,4.23-.99,8.47-1.79,12.7-2.42,2.28,5.15,4.21,10.46,5.79,15.92-3.8,1.47-7.61,2.89-11.44,4.26Z"/>
    <path class="st8" d="M253.37,152.72c.57,1.75,1.19,3.49,2.01,5.16.91,1.84,2.76,3.51,4.74,4.94,1.24.9,2.53,1.71,3.65,2.4,3.6,2.22,9.32,4.65,14.18,1.91,4.24-2.39,3.96-8.64,3.27-12.02-.85-4.17-2.1-8.89-4.94-15.07-.23-.49-.42-.92-.6-1.3-.96-2.06-1.48-2.69-4.34-3.86-.32-.13-.64-.24-.96-.35-5.63,3.26-11.93,5.1-17.71,8.06-.49,1.35-.66,2.84-.58,4.29.12,1.99.66,3.94,1.27,5.84Z"/>
    <path class="st13" d="M268.57,150.84c.15.89-.2,1.69-.77,1.78-.57.09-1.15-.55-1.3-1.45s.2-1.69.77-1.78,1.15.55,1.3,1.45Z"/>
    <path class="st13" d="M277.09,148.93c.09.9-.31,1.67-.89,1.73-.58.06-1.12-.63-1.2-1.53-.09-.9.31-1.67.89-1.73.58-.06,1.12.63,1.2,1.53Z"/>
    <path class="st17" d="M253.18,153.96c.62,1.73,1.05,3.43,1.92,5.07.96,1.81,3.46,4.08,5.48,5.44-.04-1.41-.41-3.25-1.19-4.41-.65-.97-1.33-2.1-1.34-3.27.34-.26.64-.56.89-.89,1.31-.74,2.38-1.79,2.3-3.46-.06-1.31-.77-2.47-1.14-3.7-.3-.99-.42-2.01-.37-3.03.52-1.37,1.34-2.63,2.37-3.68,2.57-2.63,6.43-4.26,10.05-3.96.63.05,2.07,0,3.59,1.15-1.03-2.03-1.57-2.64-4.46-3.72,0,0,0,0,0,0-.59-.22-1.24-.13-1.79.18-5.32,3.14-11.22,5.13-16.63,8.11-.44,1.37-.57,2.86-.44,4.3.19,1.98.09,3.96.76,5.85Z"/>
    <path class="st8" d="M263.23,156.57c-.77-1.7-2.96-3.15-4.8-2.04-1.93,1.16-1.4,3.73.09,4.99.75.63,1.71,1.11,2.71.9,1.01-.21,1.82-1.09,1.75-2.16,0-.12-.03-.24-.05-.36.33-.35.51-.87.3-1.32Z"/>
    <path class="st4" d="M270.28,158.33c.54,1.21,1.97,2.72,3.5,2.66,1.43-.06,2.52-1.4,2.44-3.01-.07,0-.14.01-.21.01-1.74.13-3.47.23-5.21.31-.17,0-.34.02-.51.03Z"/>
    <path class="st14" d="M259.72,157.53c-.06-.63.14-1.32.67-1.7.18-.13.4.12.23.25-.45.32-.61.89-.55,1.42.06.6.43.88.9,1.17.19.11,0,.4-.19.28-.57-.35-.99-.73-1.06-1.43Z"/>
    <path class="st17" d="M267.95,144.6c-.62-.46-1.47-.5-2.33-.37-.42.06-.94.29-1.32.62-.49.44-.94,1.09-.82,1.78.13.74.85,1.19,1.56,1.15.59-.04.99-.48,1.56-.51.67-.04,1.31-.18,1.71-.77.43-.62.22-1.46-.37-1.9Z"/>
    <path class="st17" d="M276.7,142.81c-.52-.56-1.36-.75-2.23-.78-.42-.02-.98.12-1.41.38-.56.34-1.11.91-1.12,1.61,0,.75.62,1.32,1.34,1.41.58.07,1.06-.29,1.62-.23.67.08,1.32.05,1.82-.46.53-.54.47-1.4-.03-1.93Z"/>
    <path class="st14" d="M274.48,152.24c-.36-1.48-1.64-2.48-2.58-3.59-.14-.17-.38.07-.24.24.78.92,1.77,1.72,2.28,2.84.66,1.45-.03,2.62-.96,3.74-.14.17.1.41.24.24.83-1,1.59-2.11,1.26-3.47Z"/>
    <path class="st13" d="M267.22,354.32c-2.74-5.2-6.99-9.38-11.58-12.97-2.06-1.61-4.19-3.19-6.38-4.67-.4-.27-.8-.53-1.2-.79-2.37-1.54-4.81-2.95-7.34-4.15-3.96-1.88-8.25-3.22-12.63-3.5-.53-.04-1.06-.05-1.6-.06-.98,0-1.96.05-2.94.16-2.3.26-5.08.93-7.39,2.19.21.54.49,1.06.8,1.55,1.45,2.23,3.63,3.81,5.78,5.32.56.4,1.13.79,1.69,1.19.52.36,1.03.72,1.55,1.08,1.42.99,2.85,1.96,4.29,2.91,4.14,2.74,8.47,5.35,13,7.5.46.22.92.43,1.38.64,5.9,2.65,12.13,4.48,18.67,4.78,1.49.07,2.98.05,4.47-.05-.18-.38-.37-.76-.56-1.13Z"/>
    <g>
      <path class="st13" d="M278.53,332.61c-.98,1.67-1.92,3.36-2.82,5.06-1.97-5.27-4.42-10.47-8.56-14.4-2.2-2.1-4.71-3.84-7.03-5.79-2.02-1.7-3.89-3.57-5.82-5.37-4.16-3.88-8.66-7.21-14.48-7.87-4.12-.47-8.23.17-12.3,1,1.09-1.69,2.22-3.37,3.37-5.02,1.01.22,2,.45,2.97.65,3.09.65,6.2.76,9.33,1.07,2.81.28,5.53.9,8.1,2.09,4.87,2.26,8.87,6,12.64,9.75,4,3.97,8.07,7.98,11.27,12.65,1.34,1.95,2.46,4.02,3.34,6.17Z"/>
      <path class="st13" d="M367.71,325.62c-3.4-1.33-6.88-2.44-10.53-2.7-5.84-.42-10.87,2.02-15.68,5.07-2.23,1.41-4.41,2.91-6.71,4.21-2.64,1.5-5.43,2.74-7.98,4.4-3.47,2.25-6.19,5.31-8.53,8.66-.6-1.67-1.2-3.35-1.8-5.03.59-.69,1.21-1.36,1.85-2.01,4-4,8.74-7.19,13.4-10.36,4.39-2.99,9.01-5.93,14.21-7.26,2.75-.7,5.53-.8,8.34-.56,3.13.27,6.21.73,9.36.66.6-.01,1.22-.03,1.84-.05.75,1.66,1.48,3.31,2.21,4.97Z"/>
      <path class="st13" d="M252.86,325.11c-.71,2.12-3.3,1.11-4.44.06-.99-.91-1.84-1.85-3.03-2.5-1.14-.63-2.4-1.03-3.67-1.31-2.65-.57-5.4-.65-8.1-.83-3.04-.21-6.09-.46-9.14-.52-1.85-.04-3.71.04-5.51.42.35-.73.71-1.46,1.07-2.18.66-1.31,1.34-2.6,2.04-3.88h0c3.78-.68,7.68-.53,11.5.41,2.89.71,5.71,1.71,8.52,2.68,2.6.9,5.18,1.89,7.57,3.27,1.49.86,3.87,2.28,3.17,4.38Z"/>
      <path class="st13" d="M296.79,305.57c-.86,1.41-1.75,2.79-2.67,4.16-.08-.15-.16-.29-.25-.44-.82-1.38-1.78-2.67-2.83-3.88-2.07-2.37-4.46-4.43-6.9-6.4-2.79-2.26-5.6-4.49-8.42-6.72-1.57-1.25-3.25-2.16-5.32-1.64-1.67.42-2.99,1.76-3.41,3.43-.82,3.23,2.01,5.71,4.38,7.33,2.47,1.69,5.03,3.24,7.43,5.04,2.45,1.83,4.79,3.83,6.86,6.09,1.25,1.36,2.41,2.81,3.42,4.36-1.18,1.65-2.37,3.29-3.54,4.93t0,0c-2.3-6.45-8.11-10.52-13.3-14.54-4.41-3.42-10.08-7.88-9.69-14.12.17-2.66,1.53-4.94,3.9-6.2,2.52-1.33,5.79-2.05,8.62-1.63,2.88.42,5.03,2.31,6.87,4.43,2.24,2.57,4.41,5.12,6.88,7.49,2.63,2.52,5.84,5.14,7.97,8.3Z"/>
      <path class="st13" d="M356.87,303.76c-.81.17-1.6.34-2.37.51-2.99.7-5.85,1.67-8.77,2.63-2.4.79-4.93,1.26-7.36.26-2.38-.98-4.59-3.05-5.92-5.23-1.26-2.06-1.27-4.45-.17-6.59,2.57-5,9.01-5.85,14-6.46.54-.07,1.09-.13,1.64-.2.39.63.77,1.27,1.16,1.9.41.67.81,1.35,1.23,2.03-2.46.23-4.93.26-7.4.42-2.59.17-5.91.78-6.77,3.66-.44,1.48-.03,3.13,1.06,4.22,1.36,1.36,3.09,1.43,4.87,1.18,3.2-.44,6.41-.87,9.61-1.33,1.06-.15,2.12-.32,3.17-.51.68,1.16,1.35,2.34,2.02,3.5Z"/>
      <path class="st13" d="M282.07,281.99c.02.81-.22,1.9-1.2,1.91-1.15.01-2.49-.85-3.41-1.46-2.28-1.51-4.17-3.57-6.71-4.68-2.85-1.25-6.03-1.4-9.1-1.6-3.02-.19-6.39-.51-9.18-1.84,2.18-2.27,4.39-4.51,6.62-6.72,1.01.47,1.94,1.29,2.81,2.06,1.13.98,2.31,1.65,3.77,2.01,1.36.34,2.76.46,4.14.73,2.79.55,5.21,1.95,7.48,3.62,1.9,1.4,4.71,3.31,4.78,5.96Z"/>
      <path class="st13" d="M319.13,282.11c-.48-1.09-1.69-1.12-2.65-.66-2.45,1.17-4.35,3.78-5.67,6.06-1.46,2.52-2.48,5.28-3.41,8.03-1.32,3.9-2.74,7.81-3.83,11.78-.06.21-.11.42-.17.63,1.01,1.78,1.9,4.08,2.85,5.89.05-.46.18-1.43.24-1.89.43-3.56,1.18-7.03,2.75-10.27,1.4-2.89,3.24-5.53,5.01-8.2,1.76-2.66,3.49-5.38,4.62-8.38.34-.92.67-2.06.25-3.01Z"/>
      <path class="st13" d="M326.4,255.12c-2.88.84-5.6,2.47-8.03,4.18-2.68,1.87-5.25,4-7.51,6.37-1.13,1.18-2.17,2.46-3,3.87-.77,1.31-1.25,2.71-1.7,4.16-.34,1.12-.71,2.26-1.43,3.2-.61.79-1.7,1.69-2.77,1.24-2.08-.88-.95-4.48-.53-5.98,1.65-6,5.4-10.93,10.34-14.64,3.45-2.59,7.41-5.13,11.65-6.52,1.01,1.37,2,2.74,2.98,4.13Z"/>
      <path class="st13" d="M341.17,315.62c-.17,1.15-1.5,1.61-2.49,1.73-1.17.14-2.35-.14-3.48-.43-1.47-.37-2.91-.69-4.44-.7-1.64-.02-3.27.21-4.87.57-3.19.71-6.35,1.81-9.33,3.13-2.17.96-4.4,2.09-6.33,3.55-.63-1.57-1.26-3.14-1.91-4.7,3.09-2.3,6.7-4.04,10.14-5.42,5.73-2.3,11.89-2.96,17.88-1.27,1.49.42,5.16,1.32,4.84,3.55Z"/>
      <path class="st13" d="M334.88,267.7c-1.42,1.26-3.69,2.73-5.25,3.53-3.1,1.58-6.42,2.75-9.64,4.05-1.69.68-3.36,1.42-5.07,2.02-1.15.41-2.69.88-3.87.3-2.59-1.28.25-4.27,1.53-5.25,2.37-1.8,5.19-2.84,7.97-3.82,3.63-1.28,8.25-2.86,11-5.89,1.12,1.67,2.23,3.36,3.33,5.06Z"/>
      <path class="st13" d="M280.64,263.28c-1.32-1.02-3.74-2.64-5.46-1.67-1.42.81-1.32,2.87-.52,4.07.57.86,1.41,1.48,2.25,2.07,1.04.73,2.07,1.47,3.04,2.3,1.93,1.66,3.67,3.54,5.15,5.61,1.48,2.06,2.53,4.32,3.79,6.51.47.8,2.86,4.95,3.96,2.62.41-.88.18-2.04-.05-2.93-.05-.18-.1-.36-.17-.54.07-.03.12-.1.1-.2-1.03-4.93-4.05-9.04-7.25-12.81-1.5-1.77-3.01-3.61-4.85-5.04Z"/>
      <path class="st13" d="M252.49,297.51c-2.27,1.3-5.35-.17-7.17-1.6-1.23-.96-2.18-2.13-3.21-3.29-.99-1.1-2.22-2.2-3.69-2.4.04-.05.08-.09.12-.14,1.19-1.48,2.4-2.94,3.63-4.38,1.15.16,2.29.46,3.38.89,2.57,1,4.91,2.65,6.7,4.75,1.39,1.63,2.69,4.77.24,6.17Z"/>
      <path class="st13" d="M298.24,257.67c1.49-1.01,2.49-2.59,3.5-4.05.64-.93,1.3-1.86,2.1-2.66.8-.81,1.72-1.47,2.65-2.13,1.38-.99,3.21-2.08,3.85-3.75.47-1.24-.16-2.39-1.43-2.72-1.7-.44-3.44.58-4.66,1.67-1.13,1.02-2.12,2.22-3.07,3.44-1.94,1.44-3.64,3.2-5,5.21-.84,1.25-2.11,3.42-1.48,5,.57,1.42,2.68.57,3.55-.02Z"/>
      <path class="st13" d="M362.34,313.95s-.09,0-.14.01c-1.47.5-2.95.96-4.45,1.19-1.62.25-3.64.15-4.82-1.16-.88-.97-.78-2.28.3-3.06,1.45-1.05,3.58-.95,5.28-1.02.57-.02,1.14-.05,1.71-.09.68,1.27,1.33,2.53,1.95,3.76.06.13.13.25.19.38Z"/>
      <path class="st13" d="M282.85,252.28c-2.05,1.84-4.95.06-7.17-.36-.66-.12-1.31-.19-1.97-.22,1.03-1.51,1.96-3.07,2.74-4.69,1.36.22,2.68.62,3.93,1.18.68.31,1.33.66,1.95,1.07.39.25.87.52,1.1.93.41.71-.03,1.59-.59,2.09Z"/>
      <path class="st13" d="M320.47,325.82c0,2.93-3.39,4.33-5.25,5.99-.47.42-.9.86-1.32,1.32-.63-1.71-1.26-3.42-1.91-5.13,1.1-1.02,2.31-1.91,3.6-2.62.71-.4,1.44-.74,2.18-1.02.46-.18,1-.43,1.49-.36.84.1,1.21,1.03,1.21,1.83Z"/>
      <path class="st13" d="M340.56,276.67c-3.43,1.46-8.66,3.72-12.07,6.53-8.92,7.34-11.59,14.55-12.7,16.14-.99,1.42-2.07,3.26-2.05,4.95.02,1.43,1.31,2.25,2.88,1.91,2.01-.45,3.34-2.29,4.13-3.8,6.19-11.83,17.96-19.14,22.62-21.18-.93-1.52-1.87-3.04-2.81-4.54Z"/>
    </g>
    <path class="st8" d="M240.71,331.74c-3.96-1.88-8.25-3.22-12.63-3.5-.25,1.16-.5,2.33-.73,3.5-.28,1.43-.55,2.87-.79,4.32-.21,1.2-.4,2.41-.58,3.61-.43,2.81-.79,5.64-1.11,8.47-.33,3-1.96,13.97-3.69,25.26-.24,1.57-.48,3.14-.72,4.7-.07.45-.14.9-.21,1.35-.19,1.26-.39,2.5-.58,3.72-.07.45-.14.9-.21,1.35-.7,4.46-1.35,8.53-1.86,11.64-.15.91-.29,1.73-.41,2.46,1.63.24,3.26.4,4.9.46.21.01.41.02.62.02.25,0,.49.01.73.02.62,0,.8-.08,1.06-.68,0,0,0-.02.01-.03.02-.06.07-.18.14-.37.01-.04.02-.07.04-.11.6-1.64,2.51-6.93,4.73-12.95.16-.43.32-.86.48-1.3.45-1.23.92-2.48,1.38-3.73.16-.44.32-.87.49-1.31.53-1.43,1.07-2.85,1.58-4.22,1.82-4.82,3.47-9.01,4.41-10.99,2.04-4.35,3.85-8.82,5.51-13.34.4-1.09.8-2.19,1.18-3.29.42-1.2.83-2.4,1.23-3.6.81-2.42,1.6-4.86,2.37-7.29-2.37-1.54-4.81-2.95-7.34-4.15Z"/>
    <path class="st8" d="M225.82,402.86c-.02-.14-.05-.29-.08-.43-.03-.13-.06-.27-.09-.41,0-.02-.01-.04-.02-.07-.03-.13-.07-.26-.11-.4-.04-.13-.07-.26-.11-.39-.08-.27-.16-.53-.25-.8-.21-.67-.35-1.34-.43-2-.02-.11-.02-.22-.04-.33,0-.03,0-.07,0-.1-.1-1.22-.02-2.44.17-3.7.29-1.94.71-3.85.69-5.82,0-.1-.11-.16-.2-.13-1.89.46-3.81.49-5.71.09.03-.33.05-.66.07-.99,0-.19-.29-.18-.3.01-.01.31-.04.61-.07.92-.01,0-.02,0-.03,0-.19-.05-.25.25-.07.29.03,0,.05.01.08.02-.23,2.59-.81,5.14-1.74,7.56-.24.63-.5,1.25-.79,1.86-.32.68-.66,1.35-1.04,2-.16.29-.33.58-.51.86-1.08,1.76-2.33,3.41-3.67,4.99-.07.08-.13.16-.2.24-.02.03-.05.06-.07.08-.81.95-1.78,1.97-2.84,3.04-.1.11-.21.22-.32.32-4.09,4.13-9.34,8.93-11.94,12.92-.43.66-.84,1.33-1.21,2.02-.04.07-.07.14-.11.21-.03.06-.06.11-.09.17-.02.03-.03.07-.05.1-.03.06-.05.11-.07.17-.03.08-.06.15-.09.23-.02.06-.04.12-.05.17-.01.05-.02.1-.03.15t0,0c-.04.22-.05.45,0,.67.25,1.19,1.64,1.69,2.69,1.89,2.96.57,5.96-.89,8.16-2.76,2.54-2.16,4.38-4.99,6.8-7.27,2.49-2.34,8.86-6.21,11.19-8.73,1.1-1.19,2.02-2.61,2.39-4.19.13-.57.17-1.11.15-1.65,0-.14-.02-.27-.03-.41-.01-.13-.03-.27-.06-.4Z"/>
    <path class="st2" d="M221.18,373.4c-.24,1.57-.49,3.14-.72,4.7-.07.46-.15.91-.22,1.35-.19,1.26-.39,2.5-.57,3.72-.07.45-.15.9-.21,1.35-.7,4.46-1.35,8.53-1.86,11.64-.24.63-.5,1.25-.79,1.86-.23.49-.48.98-.74,1.46-.1.18-.2.36-.3.54-.16.29-.33.58-.51.86-1.08,1.76-2.34,3.41-3.67,4.99-.07.08-.14.16-.2.24-.02.03-.05.05-.07.08-.81.95-1.78,1.97-2.84,3.04-.1.11-.21.22-.32.32-4.09,4.13-9.34,8.93-11.94,12.92-.43.66-.84,1.32-1.21,2.01-.04.07-.07.14-.11.21-.03.06-.06.11-.08.17-.02.03-.03.07-.05.1-.03.05-.05.11-.07.17-.03.07-.06.15-.09.23-.02.06-.03.12-.05.18-.01.05-.02.1-.03.15h0c-.04.23-.05.45,0,.68.25,1.19,1.64,1.69,2.69,1.89,2.96.57,5.95-.89,8.16-2.76,2.54-2.16,4.38-5,6.8-7.27,2.49-2.34,8.86-6.21,11.19-8.73,1.1-1.18,2.02-2.61,2.4-4.19.13-.57.17-1.12.15-1.65,0-.14-.02-.27-.03-.41-.01-.14-.03-.27-.05-.4-.02-.15-.05-.28-.08-.43-.03-.14-.06-.27-.09-.41,0-.02-.01-.04-.02-.07-.03-.13-.07-.26-.11-.4-.03-.13-.07-.26-.11-.4-.08-.27-.16-.53-.25-.8-.21-.67-.35-1.33-.43-2-.02-.11-.02-.22-.04-.33,0-.03,0-.07,0-.1.6-1.64,2.51-6.92,4.73-12.95.16-.43.32-.87.48-1.3.45-1.23.92-2.48,1.39-3.73.16-.44.32-.87.49-1.31.53-1.43,1.07-2.85,1.58-4.21-3.95-.9-8.06-1.11-12.17-1.02Z"/>
    <path class="st7" d="M225.91,403.68c0-.14-.02-.27-.03-.41-.01-.14-.03-.27-.05-.4-.02-.15-.05-.28-.08-.43-.03-.14-.06-.27-.09-.41,0-.02-.01-.04-.02-.07-.03-.13-.07-.26-.11-.4-.03-.13-.07-.26-.11-.4-.08-.27-.16-.53-.25-.8-.21-.67-.35-1.33-.43-2-.02-.11-.02-.22-.04-.33,0-.03,0-.07,0-.1-1.86.19-3.65,1.3-4.72,2.92-.5-1.12-1.74-1.74-2.97-1.61-.33.03-.64.12-.93.24-.1.18-.2.36-.3.54-.16.29-.33.58-.51.86-1.08,1.76-2.34,3.41-3.67,4.99-.07.08-.14.16-.2.24-.02.03-.05.05-.07.08-.81.95-1.78,1.97-2.84,3.04-.1.11-.21.22-.32.32-4.09,4.13-9.34,8.93-11.94,12.92-.43.66-.84,1.32-1.21,2.01-.04.07-.07.14-.11.21-.03.06-.06.11-.08.17-.02.03-.03.07-.05.1-.03.05-.05.11-.07.17-.03.07-.06.15-.09.23-.02.06-.03.12-.05.18-.01.05-.02.1-.03.15h0c-.04.23-.05.45,0,.68.25,1.19,1.64,1.69,2.69,1.89,2.96.57,5.95-.89,8.16-2.76,2.54-2.16,4.38-5,6.8-7.27,2.49-2.34,8.86-6.21,11.19-8.73,1.1-1.18,2.02-2.61,2.4-4.19.13-.57.17-1.12.15-1.65Z"/>
    <path class="st13" d="M225.74,402.43c-.54.89-1.13,1.75-1.78,2.57-1.98,2.5-4.44,4.37-7.04,6.17-1.49,1.03-2.95,2.08-4.26,3.34-1.18,1.14-2.26,2.39-3.33,3.63-3.61,4.22-8.71,9.53-14.81,7.57.02-.11.05-.22.08-.33,3.45,1.1,7.05-.37,9.76-2.57,2.42-1.97,4.3-4.5,6.39-6.81,2.07-2.29,4.46-4.04,6.98-5.8,2.46-1.72,4.67-3.64,6.46-6.06.52-.7,1-1.42,1.43-2.18.04.16.08.31.11.47Z"/>
    <path class="st13" d="M214.56,407.97c-.55-1.23-1.93-1.73-3.24-1.78.03-.03.05-.06.07-.08.07-.08.13-.16.2-.24,1.36.11,2.72.71,3.29,1.99.09.2-.23.3-.32.11Z"/>
    <path class="st13" d="M211.39,411.33c-.55-1.22-1.92-1.73-3.23-1.77.11-.11.21-.21.32-.32,1.34.12,2.67.73,3.23,1.99.09.2-.23.3-.32.11Z"/>
    <path class="st13" d="M215.48,401.29c-.69-.8-1.81-.73-2.55-.02-.64.61-.97,1.53-1.15,2.47-.11-1.48-.33-3-1-4.27-.63-1.19-1.99-1.86-3.09-.78-1.13,1.12-.69,3.02.04,4.24.88,1.47,2.38,2.47,3.95,3.07.02.02.05.04.08.05.6.15,1.23-.23,1.77-.48.62-.29,1.23-.65,1.69-1.17.75-.85,1.07-2.16.26-3.09ZM208.7,403.65c-.95-1.04-1.75-2.7-1.17-4.1.43-1.03,1.61-1.48,2.47-.63.51.51.74,1.24.93,1.91.44,1.54.53,3.15.61,4.74-1.07-.44-2.06-1.06-2.84-1.92ZM214.8,404.33c-.34.33-.74.58-1.16.8-.42.21-1.21.66-1.73.58,0,0-.02,0-.02,0,0,0,0-.01,0-.02.06-.95.21-1.91.51-2.81.19-.58.49-1.25,1.05-1.58.66-.38,1.44-.3,1.89.36.61.88.17,2-.53,2.69Z"/>
    <path class="st13" d="M231.77,378.64c-.16.43-.32.87-.49,1.31-3.64-.42-7.35-.48-11.04-.49.07-.45.14-.9.21-1.35,3.78,0,7.58.08,11.31.53Z"/>
    <path class="st13" d="M229.9,383.67c-.16.44-.32.87-.48,1.3-3.29-.36-6.64-.44-9.97-.46.07-.45.14-.89.21-1.35,3.42.02,6.85.11,10.23.5Z"/>
    <path class="st8" d="M373.46,388.28s0-.02-.01-.03c-.02-.06-.07-.18-.15-.37-.02-.04-.03-.07-.05-.11-.66-1.62-2.79-6.82-5.2-12.77-.17-.43-.34-.85-.52-1.29-.49-1.21-.99-2.46-1.48-3.69-.18-.43-.35-.87-.52-1.29-.57-1.42-1.13-2.83-1.66-4.19-1.89-4.79-3.48-9-4.13-11.1-.74-2.41-1.55-4.8-2.42-7.17-.78-2.15-1.61-4.29-2.47-6.41-.44-1.08-.88-2.16-1.34-3.23-.47-1.12-.95-2.23-1.44-3.34-1.52.4-3.01.89-4.46,1.46-2.61,1.01-5.15,2.24-7.62,3.6-.42.23-.84.46-1.26.7-1.64.94-3.26,1.93-4.84,2.95.39.59.78,1.19,1.17,1.78,1.57,2.37,3.2,4.71,4.87,7.02.42.57,1.07,1.52,1.92,2.75,2.76,4.03,7.5,11.14,12.33,18.43.88,1.32,1.75,2.65,2.62,3.97.25.39.5.76.75,1.14.7,1.06,1.4,2.11,2.08,3.14.25.39.5.76.75,1.14,2.48,3.77,4.73,7.23,6.44,9.87.5.77.95,1.48,1.35,2.1,1.37-.92,2.68-1.9,3.94-2.95.16-.13.32-.26.47-.4.19-.16.38-.32.55-.48.46-.41.54-.6.33-1.21Z"/>
    <path class="st8" d="M377.41,390.66c-.11-.09-.23-.18-.35-.27-.11-.08-.23-.16-.34-.24-.02-.01-.04-.02-.06-.04-.11-.08-.23-.15-.35-.22-.11-.07-.23-.15-.35-.22-.24-.14-.48-.29-.72-.43-.61-.36-1.16-.75-1.66-1.19-.09-.07-.17-.15-.25-.22-.02-.02-.05-.05-.08-.07-.9-.83-1.65-1.79-2.36-2.86-1.08-1.63-2.07-3.33-3.4-4.77-.07-.07-.18-.05-.23.03-1.09,1.61-2.5,2.92-4.17,3.9-.2-.26-.4-.52-.61-.78-.12-.15-.33.07-.21.21.2.24.38.48.57.72,0,0-.02.01-.03.02-.17.09-.02.35.15.26.02-.01.05-.03.07-.04,1.57,2.07,2.85,4.35,3.8,6.77.25.62.47,1.26.67,1.9.22.72.41,1.44.57,2.18.08.33.14.65.2.98.38,2.03.57,4.09.63,6.16,0,.11,0,.21.01.31,0,.04,0,.07,0,.11.04,1.25,0,2.66-.06,4.16,0,.15,0,.3-.02.45-.25,5.81-.91,12.89-.15,17.6.13.77.27,1.54.46,2.3.02.08.04.15.06.23.02.06.03.12.05.19.01.04.02.07.03.11.02.06.04.12.06.17.03.08.06.15.09.23.03.05.05.11.08.16.03.05.05.09.08.13h0c.12.2.26.37.45.5.98.72,2.35.15,3.26-.4,2.57-1.56,3.81-4.66,4.18-7.53.43-3.3-.11-6.64.15-9.95.27-3.41,2.39-10.55,2.42-13.99.02-1.62-.26-3.29-1.05-4.71-.28-.51-.62-.94-1-1.32-.1-.1-.2-.19-.3-.28-.1-.09-.21-.18-.31-.26Z"/>
    <path class="st2" d="M354.18,371.96c.87,1.32,1.75,2.65,2.62,3.96.25.39.5.77.75,1.15.7,1.06,1.4,2.11,2.08,3.14.25.39.5.76.75,1.14,2.48,3.78,4.73,7.23,6.45,9.87.24.63.47,1.26.67,1.91.16.52.31,1.05.44,1.58.05.2.09.4.14.6.08.32.14.65.2.98.38,2.03.57,4.1.64,6.16,0,.11,0,.21.01.31,0,.04,0,.07,0,.11.04,1.25,0,2.66-.06,4.16,0,.15-.01.3-.02.45-.25,5.81-.92,12.89-.15,17.59.13.77.27,1.54.46,2.3.02.08.04.15.06.23.02.06.03.12.05.18.01.04.02.07.03.11.02.06.04.12.06.18.02.08.06.15.09.23.03.05.05.11.08.16.03.04.05.09.07.13h0c.12.2.26.37.45.51.98.72,2.35.15,3.26-.41,2.57-1.56,3.81-4.66,4.18-7.53.43-3.3-.11-6.64.15-9.95.27-3.41,2.39-10.55,2.42-13.99.02-1.61-.26-3.29-1.04-4.71-.28-.51-.62-.94-1-1.32-.1-.1-.2-.19-.3-.28-.1-.09-.2-.17-.31-.26-.11-.09-.23-.18-.35-.27-.11-.08-.23-.16-.34-.24-.02-.02-.04-.02-.06-.04-.11-.07-.23-.15-.35-.22-.11-.07-.23-.15-.35-.22-.24-.14-.47-.29-.72-.43-.61-.35-1.16-.75-1.66-1.19-.09-.07-.17-.15-.25-.22-.02-.03-.05-.05-.08-.07-.66-1.62-2.8-6.82-5.2-12.77-.17-.42-.35-.85-.52-1.29-.49-1.22-.99-2.46-1.48-3.69-.18-.43-.35-.86-.52-1.3-.57-1.42-1.12-2.82-1.66-4.19-3.53,1.98-6.71,4.6-9.7,7.43Z"/>
    <path class="st7" d="M378.02,391.2c-.1-.1-.2-.19-.3-.28-.1-.09-.2-.17-.31-.26-.11-.09-.23-.18-.35-.27-.11-.08-.23-.16-.34-.24-.02-.02-.04-.02-.06-.04-.11-.07-.23-.15-.35-.22-.11-.07-.23-.15-.35-.22-.24-.14-.47-.29-.72-.43-.61-.35-1.16-.75-1.66-1.19-.09-.07-.17-.15-.25-.22-.02-.03-.05-.05-.08-.07-1.25,1.39-1.83,3.42-1.53,5.34-1.12-.49-2.46-.12-3.28.8-.22.25-.4.52-.53.81.05.2.09.4.14.6.08.32.14.65.2.98.38,2.03.57,4.1.64,6.16,0,.11,0,.21.01.31,0,.04,0,.07,0,.11.04,1.25,0,2.66-.06,4.16,0,.15-.01.3-.02.45-.25,5.81-.92,12.89-.15,17.59.13.77.27,1.54.46,2.3.02.08.04.15.06.23.02.06.03.12.05.18.01.04.02.07.03.11.02.06.04.12.06.18.02.08.06.15.09.23.03.05.05.11.08.16.03.04.05.09.07.13h0c.12.2.26.37.45.51.98.72,2.35.15,3.26-.41,2.57-1.56,3.81-4.66,4.18-7.53.43-3.3-.11-6.64.15-9.95.27-3.41,2.39-10.55,2.42-13.99.02-1.61-.26-3.29-1.04-4.71-.28-.51-.62-.94-1-1.32Z"/>
    <path class="st13" d="M377.06,390.39c.2,1.02.34,2.06.41,3.1.21,3.18-.35,6.22-1.07,9.3-.41,1.76-.79,3.53-.91,5.34-.11,1.64-.07,3.28-.02,4.93.16,5.55-.04,12.91-5.88,15.56-.06-.1-.11-.2-.16-.3,3.29-1.5,4.98-5.01,5.5-8.46.47-3.09.16-6.23.16-9.34,0-3.09.59-5.99,1.27-8.99.67-2.92,1.01-5.84.71-8.83-.09-.86-.22-1.72-.4-2.57.14.09.27.18.4.28Z"/>
    <path class="st13" d="M372.5,402.01c-1.23-.54-2.59.02-3.59.86,0-.04,0-.08,0-.11,0-.1,0-.21-.01-.31,1.08-.84,2.49-1.3,3.77-.73.2.09.03.38-.17.3Z"/>
    <path class="st13" d="M368.69,396.44c-1.05-.13-1.83.67-1.9,1.69-.06.88.31,1.78.8,2.6-1.08-1.03-2.26-2-3.61-2.49-1.27-.46-2.73-.04-2.81,1.5-.08,1.59,1.52,2.7,2.87,3.11,1.64.5,3.42.23,4.99-.39.03,0,.06,0,.1-.02.55-.3.76-1,.99-1.55.27-.64.47-1.3.46-2-.02-1.14-.66-2.32-1.89-2.46ZM365.26,402.75c-1.4-.13-3.11-.82-3.62-2.25-.38-1.05.2-2.18,1.41-2.13.71.03,1.38.42,1.97.78,1.36.85,2.51,1.98,3.64,3.1-1.09.39-2.24.6-3.39.49ZM370.24,399.16c-.03.47-.16.93-.33,1.37-.17.44-.46,1.3-.89,1.59,0,0-.02,0-.03,0,0,0,0-.01-.01-.02-.59-.74-1.13-1.55-1.51-2.43-.25-.56-.48-1.26-.28-1.87.23-.73.87-1.19,1.64-1,1.05.25,1.47,1.37,1.41,2.35Z"/>
    <path class="st13" d="M365.53,368.72c.17.43.34.86.52,1.29-2.98,2.14-5.77,4.59-8.5,7.06-.25-.38-.5-.76-.75-1.14,2.8-2.53,5.67-5.03,8.73-7.21Z"/>
    <path class="st13" d="M367.54,373.71c.18.44.35.86.52,1.29-2.68,1.94-5.21,4.13-7.69,6.36-.25-.38-.5-.76-.75-1.14,2.54-2.28,5.15-4.53,7.91-6.51Z"/>
    <path class="st8" d="M279.38,169.78c-3.96,1.86-7.81,3.93-11.23,6.66.2-.17.39-.34.59-.52.16-.15-.08-.38-.24-.24-2.16,1.93-4.35,3.85-6.53,5.78,1.17,1.35,3.08,2,4.89,2.2,2.48.27,4.94.03,7-1.5,3.69-2.74,5.88-7.8,5.52-12.38Z"/>
    <path class="st17" d="M264.76,140.47c-.05-.31-.11-.61-.19-.92-.05-.21-.38-.12-.33.09.09.35.16.71.21,1.07-.11.1-.23.18-.36.26-.04,0-.08-.01-.12,0-2.45,1.12-5,2.12-6.71,4.3-1.37,1.74-2.22,4.17-1.61,6.38.28,1.02.91,1.5,1.86,1.86.99.38,1.91,1.26,3.03.83,2.6-1,1.31-4.73,2.46-6.64.77-1.29,1.45-2.48,1.72-3.98.18-.96.2-1.93.08-2.89.04-.03.07-.06.11-.1.13-.13-.02-.32-.16-.28Z"/>
    <path class="st2" d="M283.12,141.65c-1.01-.32-2.08-.52-3.1-.64-4.76-.56-9.64-.13-14.21,1.31-4.9,1.54-9.52,4.23-13.22,7.8-1.8,1.74-3.35,3.73-4.7,5.84-.68,1.06-1.35,2.14-1.84,3.27-.13-.02-.26-.05-.4-.09-.06-.02-.11-.09-.1-.16.18-1.33.41-2.66.68-3.98.06-.29.12-.57.18-.86.37-1.67.81-3.33,1.32-4.96v-.08c-.03-1.06-.04-2.12-.03-3.19,0-.79,0-1.59.01-2.39.02-1.14.07-2.29.22-3.41.42-3.1,2.6-4.95,5.04-6.65,2.47-1.72,5.24-3.15,8.26-3.54,1.46-.19,2.95-.15,4.38.21,1.57.4,2.98,1.22,4.36,2.04.68.4,1.19.74,1.63,1.04,1.34.94,1.86,1.61,3.78,3.12.03.01.15.08.33.18,1.27.75,5.78,3.64,7.41,5.12Z"/>
    <path class="st6" d="M259.63,147.2c.09-.2-.2-.37-.29-.17-.6,1.26-1.45,2.58-1.81,3.94-.22.86-.04,1.79.79,2.23.19.1.36-.19.17-.29-1.28-.68-.53-2.23-.07-3.19.4-.84.8-1.68,1.21-2.52Z"/>
    <path class="st6" d="M258.03,162.99c-.78,2-1,4.11-.66,6.23.03.21.36.12.33-.09-.32-2.06-.09-4.11.66-6.05.08-.2-.25-.29-.33-.09Z"/>
    <path class="st6" d="M255.02,158.48c-.44,1.47-.72,2.97-.86,4.5-.02.22.32.22.34,0,.14-1.5.42-2.97.85-4.41.06-.21-.26-.3-.33-.09Z"/>
    <path class="st13" d="M254.34,233.94c-.32-1.34-.95-2.36-1.79-3.22-.68-.69-1.49-1.28-2.4-1.85-3.82-2.39-8.38-4-12.94-3.41-.14.02-.27.04-.41.06-2.02.32-4.11,1.13-5.42,2.75-.03.5.02,1.02.17,1.55.38,1.28,1.15,2.27,2.12,3.06,1.35,1.1,3.09,1.8,4.7,2.35,3.25,1.1,6.62,1.85,10.03,2.24.32.04.65.07.97.1.53.05,1.06.09,1.6.12.52.03,1.25.18,1.76.07.64-.13,1.02-1.02,1.42-1.55.14-.18.27-.37.41-.55-.01-.56-.09-1.14-.23-1.73Z"/>
    <path class="st8" d="M213.46,266.2c-.25-.2-.5-.4-.75-.6.08-.35.15-.71.22-1.07.05-.26-.36-.38-.41-.11-.05.3-.11.59-.17.89-.95-.76-1.89-1.52-2.84-2.28.08-.07.16-.14.24-.22.19-.19-.1-.49-.3-.29-.07.07-.14.13-.21.2-.05-.04-.11-.05-.17-.03,0,0-.01-.01-.02-.02-.21-.17-.51.13-.3.3,0,0,.01.01.02.01-.13.15-.26.29-.39.43-.87.61-1.83,1.05-2.83,1.41-1.04.38-2.12.67-3.18.97-1.81.52-3.46,1.18-5,2.15-1.32.69-2.59,1.46-3.7,2.45-1.6,1.43-2.66,3.3-3.59,5.2-.49,1-1.14,2.67.05,3.37-.83,1.11-1.59,2.26-2.22,3.47-.64,1.22-1.25,2.67-1.3,4.06-.02.69.34,1.43,1.13,1.09.06-.03.11-.06.17-.1-.23.69-.27,1.39.33,1.91.69.59,1.6.27,2.21-.27,0,.19.03.39.1.58.2.53.67.96,1.25.95.81-.01,1.3-.86,1.71-1.44.3-.43.6-.84.9-1.26.01.27.09.54.26.78.58.83,1.78.81,2.6.42,1.38-.65,2.4-2.23,3.38-3.34,1.12-1.27,2.21-2.55,3.27-3.86,2.86-3.51,5.48-7.31,7.22-11.47.6-1.44,1.1-2.92,1.46-4.45.19.15.37.3.56.45.21.17.51-.13.3-.3Z"/>
    <path class="st8" d="M252.55,230.72c-1.33,2.27-2.71,4.53-4.14,6.74-.95,1.47-1.92,2.93-2.92,4.37-1.46,2.09-2.93,4.2-4.64,6.1-1.72,1.92-3.72,3.56-5.77,5.12-4.2,3.19-8.44,6.33-12.67,9.48-3.69,2.75-7.4,5.46-11.27,7.97-.42.27-.83.54-1.26.8-1.59-1.99-3.22-3.95-4.78-5.96.15-.18.3-.35.45-.52.41-.47.82-.94,1.24-1.41,3.54-3.91,7.15-7.75,10.73-11.62,1.73-1.88,3.43-3.8,5.3-5.54,1.7-1.59,3.63-2.89,5.35-4.45,1.92-1.74,3.19-3.86,4.27-6.19.42-.91.82-1.81,1.23-2.73.7-1.58,1.39-3.17,2.06-4.77.36-.86.72-1.72,1.06-2.58.14-.03.28-.05.41-.06,4.56-.59,9.12,1.02,12.94,3.41.91.57,1.72,1.16,2.4,1.85Z"/>
    <path class="st14" d="M206.8,269.08c-.99,1.38-2.45,2.55-3.86,3.48-1.3.87-2.81,1.13-4.32,1.41-1.27.23-2.58.49-3.66,1.24-.55.39-.99.89-1.42,1.41-.57.7-1.29,1.85-2.28,1.92-.22.02-.22.35,0,.34,1.48-.11,2.28-1.88,3.22-2.82,1.27-1.27,3.04-1.55,4.74-1.86,1.54-.28,2.95-.66,4.23-1.59,1.33-.97,2.67-2.02,3.64-3.37.13-.18-.17-.35-.29-.17Z"/>
    <path class="st14" d="M195.54,276.97c-2.98,2.88-5.48,6.2-7.43,9.86-.1.19.19.36.29.17,1.94-3.63,4.42-6.92,7.38-9.79.16-.15-.08-.39-.24-.24Z"/>
    <path class="st14" d="M197.99,278.23c-1.64,1.45-3.05,3.12-4.35,4.88-.65.88-1.27,1.77-1.88,2.66-.61.89-1.21,1.76-1.47,2.82-.05.21.27.3.33.09.26-1.08.9-1.96,1.52-2.86.59-.85,1.18-1.71,1.8-2.54,1.28-1.74,2.67-3.38,4.29-4.81.16-.14-.08-.38-.24-.24Z"/>
    <path class="st14" d="M201.37,279.37c-2.63,2.43-4.99,5.12-7.04,8.06-.13.18.17.35.29.17,2.04-2.91,4.38-5.58,6.99-7.99.16-.15-.08-.39-.24-.24Z"/>
    <path class="st12" d="M305.49,184.57c-3.26-6.68-8.4-12.34-14.74-16.24-.19-.11-.36.18-.17.29,6.29,3.87,11.38,9.48,14.62,16.12.1.2.39.02.29-.17Z"/>
    <path class="st7" d="M275.39,136.35c-1.93-1.51-2.44-2.18-3.78-3.12-3.03.15-6.04.53-8.98,1.31-5.41,1.44-10.36,4.36-14.28,8.34-.21.21-.42.43-.62.65-.01.8-.01,1.6-.01,2.39,0,1.06,0,2.12.03,3.19,2.25-2.96,5.03-5.52,8.2-7.51,5.24-3.3,11.23-4.68,17.37-4.99.8-.04,1.61-.07,2.41-.08-.18-.1-.29-.17-.33-.18Z"/>
    <path class="st13" d="M326.06,170.23c-.27-1.38-.95-2.81-1.61-4.08-.07-.13-.14-.26-.21-.39-.74-1.4-1.61-2.73-2.6-3.97-1.93-2.44-4.48-4.96-7.38-6.22-.71-.31-1.21-.58-1.59-.8-1.1-.64-1.2-.85-2.72-.2-.24.48-.38,1.03-.41,1.54-.08,1.71.51,3.36,1.34,4.85.23.42.48.81.74,1.2,2.44,3.67,5.59,7.31,9.28,9.75.07.05.15.1.23.15.86.57,2.05,1.32,3.16,1.41.87-.88,2.01-1.89,1.75-3.24Z"/>
    <path class="st8" d="M324.45,166.15c-.73,1.88-1.78,3.87-3.31,5.9-.08-.05-.16-.1-.23-.15-3.7-2.44-6.84-6.08-9.28-9.75-.26-.39-.51-.79-.74-1.2.42-1.97,1.3-3.96,1.78-6.19.24-1.13.39-2.33.31-3.61-.17-2.99-.93-24.42-4.22-34.64,2.04-.32,2.63-5.32,4.67-5.63,4.32,8.88,12.25,26.53,12.5,43.6.04,2.63.37,6.81-1.5,11.68Z"/>
    <rect class="st13" x="292.31" y="98.21" width="10.79" height="19.6" rx="1.52" ry="1.52" transform="translate(-9.61 184.53) rotate(-33.92)"/>
    <path class="st8" d="M315.38,114.78c-.46-.86-.98-2.61-1.1-2.78-2.3-3.13-4.76-6.43-8.48-7.95-.81-.33-1.65-.57-2.52-.67-.52-.06-1.41-.27-1.78.19-.27.33-.24.84-.53,1.21-.4.5-.95.8-1.56.98-.32.1-.64.17-.97.23-2.87.08-5.65.6-7.73,2.86-.85.93-1.88,2.55-.24,3.28.36.16.7.2,1.01.16-.53.73-.64,1.86.12,2.42.52.37,1.11.39,1.7.21-.45.84-.45,1.89.59,2.39.39.19.8.22,1.2.15-.31.66-.32,1.5.09,2.1.63.95,1.89.76,2.85.6,2.78-.48,5.43-1.47,8.15-2.23,2.67.57,5.09,2.08,7.04,4.1.09.1.3.06.32-.08.35-2.03,1.15-3.78,1.87-5.69.2-.54.25-.98-.02-1.49Z"/>
    <path class="st14" d="M297.65,110.62c-1.84,1.06-4.06.59-6.01,1.3-.2.07-.12.4.09.33,1.98-.73,4.22-.25,6.09-1.34.19-.11.02-.4-.17-.29Z"/>
    <path class="st14" d="M299.32,113.02c-1.73,1.09-3.67,1.63-5.71,1.58-.22,0-.22.33,0,.34,2.1.05,4.11-.5,5.88-1.62.18-.12.01-.41-.17-.29Z"/>
    <path class="st14" d="M300.61,115.43c-1.46,1.11-3.15,1.77-4.98,1.93-.22.02-.22.36,0,.34,1.89-.16,3.64-.82,5.15-1.97.17-.13,0-.42-.17-.29Z"/>
    <path class="st1" d="M300.11,300.9c-1.78-2.01-2.8-4.48-3.53-7.04-.76-2.67-1.3-5.41-1.84-8.13-1.16-5.9-2.01-11.85-2.58-17.83-.02-.21-.36-.22-.34,0,.58,6.12,1.46,12.21,2.65,18.25,1.01,5.09,1.82,10.96,5.39,14.99.14.16.38-.08.24-.24Z"/>
    <path class="st2" d="M297.15,191.9c-.02,2.43-.31,5.66-2.74,6.92-2.51,1.3-5.37.04-7.32-1.67-1.46-1.28-2.56-2.91-3.25-4.71,4.03-2.45,8.04-4.93,12.03-7.45.85,2.21,1.3,4.55,1.28,6.92Z"/>
    <path class="st2" d="M268.97,200.34c-.75-1.04-1.78-1.72-2.85-2.42-1.44-.94-2.47-2.01-3.03-3.67-.83-2.47-.66-5.15-1.8-7.54-.54-1.15-1.37-2.06-2.37-2.57-.27.24-.53.48-.8.72-.08.07-.17.15-.25.22-1.15,1.05-2.29,2.13-3.42,3.21.7.35,1.35.8,1.92,1.36,1.52,1.49,2.38,3.8,1.82,5.91-.53,1.99-2.05,3.43-1.77,5.61.26,2.02,1.38,3.79,1.42,5.87.06,3.61-2.16,7.17-5.37,8.79-4.11,2.07-8.6-.03-12.83-.51-.94-.11-1.89-.15-2.84-.13-.72,1.59-1.44,3.18-2.17,4.77,1.85-.19,3.71-.25,5.58-.21,1.8.04,3.6.2,5.39.45,1.63.23,3.26.52,4.91.59,5.85.24,11.52-2.88,15.61-6.87,3.5-3.41,6.07-9.11,2.85-13.61Z"/>
    <path class="st2" d="M315.87,206.7c-1.38-2.13-2.93-4.12-4.55-6.08-.06-.07-.12-.15-.18-.22-5.62,4.06-9.88,9.57-14.68,14.51-1.18,1.21-2.47,2.38-4.01,3.12-1.86.88-3.91.85-5.92.83-2.99-.04-6.07.17-8.81,1.47-2.71,1.29-4.58,3.69-5.24,6.62-.71,3.15-.01,6.37,1.32,9.26,1.25,2.72,3.01,5.44,5.21,7.68.03,0,.06-.02.09-.02,2.85-.72,5.78-.96,8.7-1.3-.77-.97-1.94-1.65-2.81-2.49-1.26-1.21-2.33-2.63-3.14-4.18-1.05-2.01-1.56-4.22.06-6.09,1.13-1.29,2.73-2.07,4.36-2.5,3.03-.79,6.19-.48,9.27-.88,2.49-.32,5.2-1.07,6.98-2.97,2.17-2.32,1.54-5.37,2.27-8.21.96-3.76,5.48-5.32,8.81-6.31,1.07-.32,2.14-.53,3.22-.7-.31-.52-.63-1.03-.96-1.54Z"/>
    <path class="st2" d="M317.02,176.8c-1.5-.53-2.93-1.34-4.01-2.52-1.32-1.44-1.83-3.29-2.43-5.1-.52-1.55-1.22-3.14-2.55-4.16-1.57-1.2-3.24-.63-5.05-.76-2.09-.16-3.65-1.87-4.31-3.75-.01-.04-.02-.07-.03-.11-1.22.67-2.3,1.28-3.1,1.74-.29.17-.59.34-.89.5.15.9.32,1.79.53,2.68.63,2.63,1.88,5.27,4.51,6.38,3.12,1.32,6.98.51,9.25,3.54,1.52,2.02,2.03,4.65,3.58,6.65,2.47-1.33,4.87-2.77,7.12-4.43-.89-.15-1.77-.36-2.62-.66Z"/>
    <path class="st12" d="M260.47,226.28c-2.69-8.9-5.39-17.89-5.99-27.21-.01-.22-.35-.22-.34,0,.6,9.36,3.3,18.38,6,27.3.06.21.39.12.33-.09Z"/>
    <path class="st12" d="M284.15,167.63c-.15,1.58-.34,3.15-.63,4.72-1.21,6.59-4.4,13.42-11.01,16.03-5.19,2.05-10.42.02-14.54-3.33.08-.08.16-.15.25-.22,1.77,1.44,3.74,2.62,5.86,3.37,6.86,2.41,13.44-1.95,16.54-7.99,2-3.88,2.75-8.12,3.17-12.42.12-.05.24-.1.35-.16Z"/>
  </g>
</svg>